<?xml version="1.0" encoding="utf-8" standalone="no"?>
<!DOCTYPE svg PUBLIC "-//W3C//DTD SVG 1.1//EN"
  "http://www.w3.org/Graphics/SVG/1.1/DTD/svg11.dtd">
<!-- Created with matplotlib (http://matplotlib.org/) -->
<svg height="345pt" version="1.1" viewBox="0 0 460 345" width="460pt" xmlns="http://www.w3.org/2000/svg" xmlns:xlink="http://www.w3.org/1999/xlink">
 <defs>
  <style type="text/css">
*{stroke-linecap:butt;stroke-linejoin:round;}
  </style>
 </defs>
 <g id="figure_1">
  <g id="patch_1">
   <path d="M 0 345.6 
L 460.8 345.6 
L 460.8 0 
L 0 0 
z
" style="fill:#ffffff;"/>
  </g>
  <g id="axes_1">
   <g id="patch_2">
    <path d="M 57.6 307.584 
L 414.72 307.584 
L 414.72 41.472 
L 57.6 41.472 
z
" style="fill:#ffffff;"/>
   </g>
   <g id="matplotlib.axis_1">
    <g id="xtick_1">
     <g id="line2d_1">
      <path clip-path="url(#pba3d011770)" d="M 98.806154 307.584 
L 98.806154 41.472 
" style="fill:none;stroke:#b0b0b0;stroke-linecap:square;stroke-width:0.8;"/>
     </g>
     <g id="line2d_2">
      <defs>
       <path d="M 0 0 
L 0 3.5 
" id="ma89ca854b8" style="stroke:#000000;stroke-width:0.8;"/>
      </defs>
      <g>
       <use style="stroke:#000000;stroke-width:0.8;" x="98.806154" xlink:href="#ma89ca854b8" y="307.584"/>
      </g>
     </g>
     <g id="text_1">
      <!-- 2 -->
      <defs>
       <path d="M 19.1875 8.296875 
L 53.609375 8.296875 
L 53.609375 0 
L 7.328125 0 
L 7.328125 8.296875 
Q 12.9375 14.109375 22.625 23.890625 
Q 32.328125 33.6875 34.8125 36.53125 
Q 39.546875 41.84375 41.421875 45.53125 
Q 43.3125 49.21875 43.3125 52.78125 
Q 43.3125 58.59375 39.234375 62.25 
Q 35.15625 65.921875 28.609375 65.921875 
Q 23.96875 65.921875 18.8125 64.3125 
Q 13.671875 62.703125 7.8125 59.421875 
L 7.8125 69.390625 
Q 13.765625 71.78125 18.9375 73 
Q 24.125 74.21875 28.421875 74.21875 
Q 39.75 74.21875 46.484375 68.546875 
Q 53.21875 62.890625 53.21875 53.421875 
Q 53.21875 48.921875 51.53125 44.890625 
Q 49.859375 40.875 45.40625 35.40625 
Q 44.1875 33.984375 37.640625 27.21875 
Q 31.109375 20.453125 19.1875 8.296875 
z
" id="DejaVuSans-32"/>
      </defs>
      <g transform="translate(95.624904 322.182437)scale(0.1 -0.1)">
       <use xlink:href="#DejaVuSans-32"/>
      </g>
     </g>
    </g>
    <g id="xtick_2">
     <g id="line2d_3">
      <path clip-path="url(#pba3d011770)" d="M 148.753007 307.584 
L 148.753007 41.472 
" style="fill:none;stroke:#b0b0b0;stroke-linecap:square;stroke-width:0.8;"/>
     </g>
     <g id="line2d_4">
      <g>
       <use style="stroke:#000000;stroke-width:0.8;" x="148.753007" xlink:href="#ma89ca854b8" y="307.584"/>
      </g>
     </g>
     <g id="text_2">
      <!-- 4 -->
      <defs>
       <path d="M 37.796875 64.3125 
L 12.890625 25.390625 
L 37.796875 25.390625 
z
M 35.203125 72.90625 
L 47.609375 72.90625 
L 47.609375 25.390625 
L 58.015625 25.390625 
L 58.015625 17.1875 
L 47.609375 17.1875 
L 47.609375 0 
L 37.796875 0 
L 37.796875 17.1875 
L 4.890625 17.1875 
L 4.890625 26.703125 
z
" id="DejaVuSans-34"/>
      </defs>
      <g transform="translate(145.571757 322.182437)scale(0.1 -0.1)">
       <use xlink:href="#DejaVuSans-34"/>
      </g>
     </g>
    </g>
    <g id="xtick_3">
     <g id="line2d_5">
      <path clip-path="url(#pba3d011770)" d="M 198.69986 307.584 
L 198.69986 41.472 
" style="fill:none;stroke:#b0b0b0;stroke-linecap:square;stroke-width:0.8;"/>
     </g>
     <g id="line2d_6">
      <g>
       <use style="stroke:#000000;stroke-width:0.8;" x="198.69986" xlink:href="#ma89ca854b8" y="307.584"/>
      </g>
     </g>
     <g id="text_3">
      <!-- 6 -->
      <defs>
       <path d="M 33.015625 40.375 
Q 26.375 40.375 22.484375 35.828125 
Q 18.609375 31.296875 18.609375 23.390625 
Q 18.609375 15.53125 22.484375 10.953125 
Q 26.375 6.390625 33.015625 6.390625 
Q 39.65625 6.390625 43.53125 10.953125 
Q 47.40625 15.53125 47.40625 23.390625 
Q 47.40625 31.296875 43.53125 35.828125 
Q 39.65625 40.375 33.015625 40.375 
z
M 52.59375 71.296875 
L 52.59375 62.3125 
Q 48.875 64.0625 45.09375 64.984375 
Q 41.3125 65.921875 37.59375 65.921875 
Q 27.828125 65.921875 22.671875 59.328125 
Q 17.53125 52.734375 16.796875 39.40625 
Q 19.671875 43.65625 24.015625 45.921875 
Q 28.375 48.1875 33.59375 48.1875 
Q 44.578125 48.1875 50.953125 41.515625 
Q 57.328125 34.859375 57.328125 23.390625 
Q 57.328125 12.15625 50.6875 5.359375 
Q 44.046875 -1.421875 33.015625 -1.421875 
Q 20.359375 -1.421875 13.671875 8.265625 
Q 6.984375 17.96875 6.984375 36.375 
Q 6.984375 53.65625 15.1875 63.9375 
Q 23.390625 74.21875 37.203125 74.21875 
Q 40.921875 74.21875 44.703125 73.484375 
Q 48.484375 72.75 52.59375 71.296875 
z
" id="DejaVuSans-36"/>
      </defs>
      <g transform="translate(195.51861 322.182437)scale(0.1 -0.1)">
       <use xlink:href="#DejaVuSans-36"/>
      </g>
     </g>
    </g>
    <g id="xtick_4">
     <g id="line2d_7">
      <path clip-path="url(#pba3d011770)" d="M 248.646713 307.584 
L 248.646713 41.472 
" style="fill:none;stroke:#b0b0b0;stroke-linecap:square;stroke-width:0.8;"/>
     </g>
     <g id="line2d_8">
      <g>
       <use style="stroke:#000000;stroke-width:0.8;" x="248.646713" xlink:href="#ma89ca854b8" y="307.584"/>
      </g>
     </g>
     <g id="text_4">
      <!-- 8 -->
      <defs>
       <path d="M 31.78125 34.625 
Q 24.75 34.625 20.71875 30.859375 
Q 16.703125 27.09375 16.703125 20.515625 
Q 16.703125 13.921875 20.71875 10.15625 
Q 24.75 6.390625 31.78125 6.390625 
Q 38.8125 6.390625 42.859375 10.171875 
Q 46.921875 13.96875 46.921875 20.515625 
Q 46.921875 27.09375 42.890625 30.859375 
Q 38.875 34.625 31.78125 34.625 
z
M 21.921875 38.8125 
Q 15.578125 40.375 12.03125 44.71875 
Q 8.5 49.078125 8.5 55.328125 
Q 8.5 64.0625 14.71875 69.140625 
Q 20.953125 74.21875 31.78125 74.21875 
Q 42.671875 74.21875 48.875 69.140625 
Q 55.078125 64.0625 55.078125 55.328125 
Q 55.078125 49.078125 51.53125 44.71875 
Q 48 40.375 41.703125 38.8125 
Q 48.828125 37.15625 52.796875 32.3125 
Q 56.78125 27.484375 56.78125 20.515625 
Q 56.78125 9.90625 50.3125 4.234375 
Q 43.84375 -1.421875 31.78125 -1.421875 
Q 19.734375 -1.421875 13.25 4.234375 
Q 6.78125 9.90625 6.78125 20.515625 
Q 6.78125 27.484375 10.78125 32.3125 
Q 14.796875 37.15625 21.921875 38.8125 
z
M 18.3125 54.390625 
Q 18.3125 48.734375 21.84375 45.5625 
Q 25.390625 42.390625 31.78125 42.390625 
Q 38.140625 42.390625 41.71875 45.5625 
Q 45.3125 48.734375 45.3125 54.390625 
Q 45.3125 60.0625 41.71875 63.234375 
Q 38.140625 66.40625 31.78125 66.40625 
Q 25.390625 66.40625 21.84375 63.234375 
Q 18.3125 60.0625 18.3125 54.390625 
z
" id="DejaVuSans-38"/>
      </defs>
      <g transform="translate(245.465463 322.182437)scale(0.1 -0.1)">
       <use xlink:href="#DejaVuSans-38"/>
      </g>
     </g>
    </g>
    <g id="xtick_5">
     <g id="line2d_9">
      <path clip-path="url(#pba3d011770)" d="M 298.593566 307.584 
L 298.593566 41.472 
" style="fill:none;stroke:#b0b0b0;stroke-linecap:square;stroke-width:0.8;"/>
     </g>
     <g id="line2d_10">
      <g>
       <use style="stroke:#000000;stroke-width:0.8;" x="298.593566" xlink:href="#ma89ca854b8" y="307.584"/>
      </g>
     </g>
     <g id="text_5">
      <!-- 10 -->
      <defs>
       <path d="M 12.40625 8.296875 
L 28.515625 8.296875 
L 28.515625 63.921875 
L 10.984375 60.40625 
L 10.984375 69.390625 
L 28.421875 72.90625 
L 38.28125 72.90625 
L 38.28125 8.296875 
L 54.390625 8.296875 
L 54.390625 0 
L 12.40625 0 
z
" id="DejaVuSans-31"/>
       <path d="M 31.78125 66.40625 
Q 24.171875 66.40625 20.328125 58.90625 
Q 16.5 51.421875 16.5 36.375 
Q 16.5 21.390625 20.328125 13.890625 
Q 24.171875 6.390625 31.78125 6.390625 
Q 39.453125 6.390625 43.28125 13.890625 
Q 47.125 21.390625 47.125 36.375 
Q 47.125 51.421875 43.28125 58.90625 
Q 39.453125 66.40625 31.78125 66.40625 
z
M 31.78125 74.21875 
Q 44.046875 74.21875 50.515625 64.515625 
Q 56.984375 54.828125 56.984375 36.375 
Q 56.984375 17.96875 50.515625 8.265625 
Q 44.046875 -1.421875 31.78125 -1.421875 
Q 19.53125 -1.421875 13.0625 8.265625 
Q 6.59375 17.96875 6.59375 36.375 
Q 6.59375 54.828125 13.0625 64.515625 
Q 19.53125 74.21875 31.78125 74.21875 
z
" id="DejaVuSans-30"/>
      </defs>
      <g transform="translate(292.231066 322.182437)scale(0.1 -0.1)">
       <use xlink:href="#DejaVuSans-31"/>
       <use x="63.623047" xlink:href="#DejaVuSans-30"/>
      </g>
     </g>
    </g>
    <g id="xtick_6">
     <g id="line2d_11">
      <path clip-path="url(#pba3d011770)" d="M 348.54042 307.584 
L 348.54042 41.472 
" style="fill:none;stroke:#b0b0b0;stroke-linecap:square;stroke-width:0.8;"/>
     </g>
     <g id="line2d_12">
      <g>
       <use style="stroke:#000000;stroke-width:0.8;" x="348.54042" xlink:href="#ma89ca854b8" y="307.584"/>
      </g>
     </g>
     <g id="text_6">
      <!-- 12 -->
      <g transform="translate(342.17792 322.182437)scale(0.1 -0.1)">
       <use xlink:href="#DejaVuSans-31"/>
       <use x="63.623047" xlink:href="#DejaVuSans-32"/>
      </g>
     </g>
    </g>
    <g id="xtick_7">
     <g id="line2d_13">
      <path clip-path="url(#pba3d011770)" d="M 398.487273 307.584 
L 398.487273 41.472 
" style="fill:none;stroke:#b0b0b0;stroke-linecap:square;stroke-width:0.8;"/>
     </g>
     <g id="line2d_14">
      <g>
       <use style="stroke:#000000;stroke-width:0.8;" x="398.487273" xlink:href="#ma89ca854b8" y="307.584"/>
      </g>
     </g>
     <g id="text_7">
      <!-- 14 -->
      <g transform="translate(392.124773 322.182437)scale(0.1 -0.1)">
       <use xlink:href="#DejaVuSans-31"/>
       <use x="63.623047" xlink:href="#DejaVuSans-34"/>
      </g>
     </g>
    </g>
    <g id="text_8">
     <!-- Size of predicted portfolio -->
     <defs>
      <path d="M 53.515625 70.515625 
L 53.515625 60.890625 
Q 47.90625 63.578125 42.921875 64.890625 
Q 37.9375 66.21875 33.296875 66.21875 
Q 25.25 66.21875 20.875 63.09375 
Q 16.5 59.96875 16.5 54.203125 
Q 16.5 49.359375 19.40625 46.890625 
Q 22.3125 44.4375 30.421875 42.921875 
L 36.375 41.703125 
Q 47.40625 39.59375 52.65625 34.296875 
Q 57.90625 29 57.90625 20.125 
Q 57.90625 9.515625 50.796875 4.046875 
Q 43.703125 -1.421875 29.984375 -1.421875 
Q 24.8125 -1.421875 18.96875 -0.25 
Q 13.140625 0.921875 6.890625 3.21875 
L 6.890625 13.375 
Q 12.890625 10.015625 18.65625 8.296875 
Q 24.421875 6.59375 29.984375 6.59375 
Q 38.421875 6.59375 43.015625 9.90625 
Q 47.609375 13.234375 47.609375 19.390625 
Q 47.609375 24.75 44.3125 27.78125 
Q 41.015625 30.8125 33.5 32.328125 
L 27.484375 33.5 
Q 16.453125 35.6875 11.515625 40.375 
Q 6.59375 45.0625 6.59375 53.421875 
Q 6.59375 63.09375 13.40625 68.65625 
Q 20.21875 74.21875 32.171875 74.21875 
Q 37.3125 74.21875 42.625 73.28125 
Q 47.953125 72.359375 53.515625 70.515625 
z
" id="DejaVuSans-53"/>
      <path d="M 9.421875 54.6875 
L 18.40625 54.6875 
L 18.40625 0 
L 9.421875 0 
z
M 9.421875 75.984375 
L 18.40625 75.984375 
L 18.40625 64.59375 
L 9.421875 64.59375 
z
" id="DejaVuSans-69"/>
      <path d="M 5.515625 54.6875 
L 48.1875 54.6875 
L 48.1875 46.484375 
L 14.40625 7.171875 
L 48.1875 7.171875 
L 48.1875 0 
L 4.296875 0 
L 4.296875 8.203125 
L 38.09375 47.515625 
L 5.515625 47.515625 
z
" id="DejaVuSans-7a"/>
      <path d="M 56.203125 29.59375 
L 56.203125 25.203125 
L 14.890625 25.203125 
Q 15.484375 15.921875 20.484375 11.0625 
Q 25.484375 6.203125 34.421875 6.203125 
Q 39.59375 6.203125 44.453125 7.46875 
Q 49.3125 8.734375 54.109375 11.28125 
L 54.109375 2.78125 
Q 49.265625 0.734375 44.1875 -0.34375 
Q 39.109375 -1.421875 33.890625 -1.421875 
Q 20.796875 -1.421875 13.15625 6.1875 
Q 5.515625 13.8125 5.515625 26.8125 
Q 5.515625 40.234375 12.765625 48.109375 
Q 20.015625 56 32.328125 56 
Q 43.359375 56 49.78125 48.890625 
Q 56.203125 41.796875 56.203125 29.59375 
z
M 47.21875 32.234375 
Q 47.125 39.59375 43.09375 43.984375 
Q 39.0625 48.390625 32.421875 48.390625 
Q 24.90625 48.390625 20.390625 44.140625 
Q 15.875 39.890625 15.1875 32.171875 
z
" id="DejaVuSans-65"/>
      <path id="DejaVuSans-20"/>
      <path d="M 30.609375 48.390625 
Q 23.390625 48.390625 19.1875 42.75 
Q 14.984375 37.109375 14.984375 27.296875 
Q 14.984375 17.484375 19.15625 11.84375 
Q 23.34375 6.203125 30.609375 6.203125 
Q 37.796875 6.203125 41.984375 11.859375 
Q 46.1875 17.53125 46.1875 27.296875 
Q 46.1875 37.015625 41.984375 42.703125 
Q 37.796875 48.390625 30.609375 48.390625 
z
M 30.609375 56 
Q 42.328125 56 49.015625 48.375 
Q 55.71875 40.765625 55.71875 27.296875 
Q 55.71875 13.875 49.015625 6.21875 
Q 42.328125 -1.421875 30.609375 -1.421875 
Q 18.84375 -1.421875 12.171875 6.21875 
Q 5.515625 13.875 5.515625 27.296875 
Q 5.515625 40.765625 12.171875 48.375 
Q 18.84375 56 30.609375 56 
z
" id="DejaVuSans-6f"/>
      <path d="M 37.109375 75.984375 
L 37.109375 68.5 
L 28.515625 68.5 
Q 23.6875 68.5 21.796875 66.546875 
Q 19.921875 64.59375 19.921875 59.515625 
L 19.921875 54.6875 
L 34.71875 54.6875 
L 34.71875 47.703125 
L 19.921875 47.703125 
L 19.921875 0 
L 10.890625 0 
L 10.890625 47.703125 
L 2.296875 47.703125 
L 2.296875 54.6875 
L 10.890625 54.6875 
L 10.890625 58.5 
Q 10.890625 67.625 15.140625 71.796875 
Q 19.390625 75.984375 28.609375 75.984375 
z
" id="DejaVuSans-66"/>
      <path d="M 18.109375 8.203125 
L 18.109375 -20.796875 
L 9.078125 -20.796875 
L 9.078125 54.6875 
L 18.109375 54.6875 
L 18.109375 46.390625 
Q 20.953125 51.265625 25.265625 53.625 
Q 29.59375 56 35.59375 56 
Q 45.5625 56 51.78125 48.09375 
Q 58.015625 40.1875 58.015625 27.296875 
Q 58.015625 14.40625 51.78125 6.484375 
Q 45.5625 -1.421875 35.59375 -1.421875 
Q 29.59375 -1.421875 25.265625 0.953125 
Q 20.953125 3.328125 18.109375 8.203125 
z
M 48.6875 27.296875 
Q 48.6875 37.203125 44.609375 42.84375 
Q 40.53125 48.484375 33.40625 48.484375 
Q 26.265625 48.484375 22.1875 42.84375 
Q 18.109375 37.203125 18.109375 27.296875 
Q 18.109375 17.390625 22.1875 11.75 
Q 26.265625 6.109375 33.40625 6.109375 
Q 40.53125 6.109375 44.609375 11.75 
Q 48.6875 17.390625 48.6875 27.296875 
z
" id="DejaVuSans-70"/>
      <path d="M 41.109375 46.296875 
Q 39.59375 47.171875 37.8125 47.578125 
Q 36.03125 48 33.890625 48 
Q 26.265625 48 22.1875 43.046875 
Q 18.109375 38.09375 18.109375 28.8125 
L 18.109375 0 
L 9.078125 0 
L 9.078125 54.6875 
L 18.109375 54.6875 
L 18.109375 46.1875 
Q 20.953125 51.171875 25.484375 53.578125 
Q 30.03125 56 36.53125 56 
Q 37.453125 56 38.578125 55.875 
Q 39.703125 55.765625 41.0625 55.515625 
z
" id="DejaVuSans-72"/>
      <path d="M 45.40625 46.390625 
L 45.40625 75.984375 
L 54.390625 75.984375 
L 54.390625 0 
L 45.40625 0 
L 45.40625 8.203125 
Q 42.578125 3.328125 38.25 0.953125 
Q 33.9375 -1.421875 27.875 -1.421875 
Q 17.96875 -1.421875 11.734375 6.484375 
Q 5.515625 14.40625 5.515625 27.296875 
Q 5.515625 40.1875 11.734375 48.09375 
Q 17.96875 56 27.875 56 
Q 33.9375 56 38.25 53.625 
Q 42.578125 51.265625 45.40625 46.390625 
z
M 14.796875 27.296875 
Q 14.796875 17.390625 18.875 11.75 
Q 22.953125 6.109375 30.078125 6.109375 
Q 37.203125 6.109375 41.296875 11.75 
Q 45.40625 17.390625 45.40625 27.296875 
Q 45.40625 37.203125 41.296875 42.84375 
Q 37.203125 48.484375 30.078125 48.484375 
Q 22.953125 48.484375 18.875 42.84375 
Q 14.796875 37.203125 14.796875 27.296875 
z
" id="DejaVuSans-64"/>
      <path d="M 48.78125 52.59375 
L 48.78125 44.1875 
Q 44.96875 46.296875 41.140625 47.34375 
Q 37.3125 48.390625 33.40625 48.390625 
Q 24.65625 48.390625 19.8125 42.84375 
Q 14.984375 37.3125 14.984375 27.296875 
Q 14.984375 17.28125 19.8125 11.734375 
Q 24.65625 6.203125 33.40625 6.203125 
Q 37.3125 6.203125 41.140625 7.25 
Q 44.96875 8.296875 48.78125 10.40625 
L 48.78125 2.09375 
Q 45.015625 0.34375 40.984375 -0.53125 
Q 36.96875 -1.421875 32.421875 -1.421875 
Q 20.0625 -1.421875 12.78125 6.34375 
Q 5.515625 14.109375 5.515625 27.296875 
Q 5.515625 40.671875 12.859375 48.328125 
Q 20.21875 56 33.015625 56 
Q 37.15625 56 41.109375 55.140625 
Q 45.0625 54.296875 48.78125 52.59375 
z
" id="DejaVuSans-63"/>
      <path d="M 18.3125 70.21875 
L 18.3125 54.6875 
L 36.8125 54.6875 
L 36.8125 47.703125 
L 18.3125 47.703125 
L 18.3125 18.015625 
Q 18.3125 11.328125 20.140625 9.421875 
Q 21.96875 7.515625 27.59375 7.515625 
L 36.8125 7.515625 
L 36.8125 0 
L 27.59375 0 
Q 17.1875 0 13.234375 3.875 
Q 9.28125 7.765625 9.28125 18.015625 
L 9.28125 47.703125 
L 2.6875 47.703125 
L 2.6875 54.6875 
L 9.28125 54.6875 
L 9.28125 70.21875 
z
" id="DejaVuSans-74"/>
      <path d="M 9.421875 75.984375 
L 18.40625 75.984375 
L 18.40625 0 
L 9.421875 0 
z
" id="DejaVuSans-6c"/>
     </defs>
     <g transform="translate(171.574844 335.860562)scale(0.1 -0.1)">
      <use xlink:href="#DejaVuSans-53"/>
      <use x="63.476562" xlink:href="#DejaVuSans-69"/>
      <use x="91.259766" xlink:href="#DejaVuSans-7a"/>
      <use x="143.75" xlink:href="#DejaVuSans-65"/>
      <use x="205.273438" xlink:href="#DejaVuSans-20"/>
      <use x="237.060547" xlink:href="#DejaVuSans-6f"/>
      <use x="298.242188" xlink:href="#DejaVuSans-66"/>
      <use x="333.447266" xlink:href="#DejaVuSans-20"/>
      <use x="365.234375" xlink:href="#DejaVuSans-70"/>
      <use x="428.710938" xlink:href="#DejaVuSans-72"/>
      <use x="469.792969" xlink:href="#DejaVuSans-65"/>
      <use x="531.316406" xlink:href="#DejaVuSans-64"/>
      <use x="594.792969" xlink:href="#DejaVuSans-69"/>
      <use x="622.576172" xlink:href="#DejaVuSans-63"/>
      <use x="677.556641" xlink:href="#DejaVuSans-74"/>
      <use x="716.765625" xlink:href="#DejaVuSans-65"/>
      <use x="778.289062" xlink:href="#DejaVuSans-64"/>
      <use x="841.765625" xlink:href="#DejaVuSans-20"/>
      <use x="873.552734" xlink:href="#DejaVuSans-70"/>
      <use x="937.029297" xlink:href="#DejaVuSans-6f"/>
      <use x="998.210938" xlink:href="#DejaVuSans-72"/>
      <use x="1039.324219" xlink:href="#DejaVuSans-74"/>
      <use x="1078.533203" xlink:href="#DejaVuSans-66"/>
      <use x="1113.738281" xlink:href="#DejaVuSans-6f"/>
      <use x="1174.919922" xlink:href="#DejaVuSans-6c"/>
      <use x="1202.703125" xlink:href="#DejaVuSans-69"/>
      <use x="1230.486328" xlink:href="#DejaVuSans-6f"/>
     </g>
    </g>
   </g>
   <g id="matplotlib.axis_2">
    <g id="ytick_1">
     <g id="line2d_15">
      <path clip-path="url(#pba3d011770)" d="M 57.6 290.853976 
L 414.72 290.853976 
" style="fill:none;stroke:#b0b0b0;stroke-linecap:square;stroke-width:0.8;"/>
     </g>
     <g id="line2d_16">
      <defs>
       <path d="M 0 0 
L -3.5 0 
" id="mbcbe265452" style="stroke:#000000;stroke-width:0.8;"/>
      </defs>
      <g>
       <use style="stroke:#000000;stroke-width:0.8;" x="57.6" xlink:href="#mbcbe265452" y="290.853976"/>
      </g>
     </g>
     <g id="text_9">
      <!-- 0.00 -->
      <defs>
       <path d="M 10.6875 12.40625 
L 21 12.40625 
L 21 0 
L 10.6875 0 
z
" id="DejaVuSans-2e"/>
      </defs>
      <g transform="translate(28.334375 294.653195)scale(0.1 -0.1)">
       <use xlink:href="#DejaVuSans-30"/>
       <use x="63.623047" xlink:href="#DejaVuSans-2e"/>
       <use x="95.410156" xlink:href="#DejaVuSans-30"/>
       <use x="159.033203" xlink:href="#DejaVuSans-30"/>
      </g>
     </g>
    </g>
    <g id="ytick_2">
     <g id="line2d_17">
      <path clip-path="url(#pba3d011770)" d="M 57.6 245.115643 
L 414.72 245.115643 
" style="fill:none;stroke:#b0b0b0;stroke-linecap:square;stroke-width:0.8;"/>
     </g>
     <g id="line2d_18">
      <g>
       <use style="stroke:#000000;stroke-width:0.8;" x="57.6" xlink:href="#mbcbe265452" y="245.115643"/>
      </g>
     </g>
     <g id="text_10">
      <!-- 0.05 -->
      <defs>
       <path d="M 10.796875 72.90625 
L 49.515625 72.90625 
L 49.515625 64.59375 
L 19.828125 64.59375 
L 19.828125 46.734375 
Q 21.96875 47.46875 24.109375 47.828125 
Q 26.265625 48.1875 28.421875 48.1875 
Q 40.625 48.1875 47.75 41.5 
Q 54.890625 34.8125 54.890625 23.390625 
Q 54.890625 11.625 47.5625 5.09375 
Q 40.234375 -1.421875 26.90625 -1.421875 
Q 22.3125 -1.421875 17.546875 -0.640625 
Q 12.796875 0.140625 7.71875 1.703125 
L 7.71875 11.625 
Q 12.109375 9.234375 16.796875 8.0625 
Q 21.484375 6.890625 26.703125 6.890625 
Q 35.15625 6.890625 40.078125 11.328125 
Q 45.015625 15.765625 45.015625 23.390625 
Q 45.015625 31 40.078125 35.4375 
Q 35.15625 39.890625 26.703125 39.890625 
Q 22.75 39.890625 18.8125 39.015625 
Q 14.890625 38.140625 10.796875 36.28125 
z
" id="DejaVuSans-35"/>
      </defs>
      <g transform="translate(28.334375 248.914861)scale(0.1 -0.1)">
       <use xlink:href="#DejaVuSans-30"/>
       <use x="63.623047" xlink:href="#DejaVuSans-2e"/>
       <use x="95.410156" xlink:href="#DejaVuSans-30"/>
       <use x="159.033203" xlink:href="#DejaVuSans-35"/>
      </g>
     </g>
    </g>
    <g id="ytick_3">
     <g id="line2d_19">
      <path clip-path="url(#pba3d011770)" d="M 57.6 199.377309 
L 414.72 199.377309 
" style="fill:none;stroke:#b0b0b0;stroke-linecap:square;stroke-width:0.8;"/>
     </g>
     <g id="line2d_20">
      <g>
       <use style="stroke:#000000;stroke-width:0.8;" x="57.6" xlink:href="#mbcbe265452" y="199.377309"/>
      </g>
     </g>
     <g id="text_11">
      <!-- 0.10 -->
      <g transform="translate(28.334375 203.176528)scale(0.1 -0.1)">
       <use xlink:href="#DejaVuSans-30"/>
       <use x="63.623047" xlink:href="#DejaVuSans-2e"/>
       <use x="95.410156" xlink:href="#DejaVuSans-31"/>
       <use x="159.033203" xlink:href="#DejaVuSans-30"/>
      </g>
     </g>
    </g>
    <g id="ytick_4">
     <g id="line2d_21">
      <path clip-path="url(#pba3d011770)" d="M 57.6 153.638976 
L 414.72 153.638976 
" style="fill:none;stroke:#b0b0b0;stroke-linecap:square;stroke-width:0.8;"/>
     </g>
     <g id="line2d_22">
      <g>
       <use style="stroke:#000000;stroke-width:0.8;" x="57.6" xlink:href="#mbcbe265452" y="153.638976"/>
      </g>
     </g>
     <g id="text_12">
      <!-- 0.15 -->
      <g transform="translate(28.334375 157.438194)scale(0.1 -0.1)">
       <use xlink:href="#DejaVuSans-30"/>
       <use x="63.623047" xlink:href="#DejaVuSans-2e"/>
       <use x="95.410156" xlink:href="#DejaVuSans-31"/>
       <use x="159.033203" xlink:href="#DejaVuSans-35"/>
      </g>
     </g>
    </g>
    <g id="ytick_5">
     <g id="line2d_23">
      <path clip-path="url(#pba3d011770)" d="M 57.6 107.900642 
L 414.72 107.900642 
" style="fill:none;stroke:#b0b0b0;stroke-linecap:square;stroke-width:0.8;"/>
     </g>
     <g id="line2d_24">
      <g>
       <use style="stroke:#000000;stroke-width:0.8;" x="57.6" xlink:href="#mbcbe265452" y="107.900642"/>
      </g>
     </g>
     <g id="text_13">
      <!-- 0.20 -->
      <g transform="translate(28.334375 111.699861)scale(0.1 -0.1)">
       <use xlink:href="#DejaVuSans-30"/>
       <use x="63.623047" xlink:href="#DejaVuSans-2e"/>
       <use x="95.410156" xlink:href="#DejaVuSans-32"/>
       <use x="159.033203" xlink:href="#DejaVuSans-30"/>
      </g>
     </g>
    </g>
    <g id="ytick_6">
     <g id="line2d_25">
      <path clip-path="url(#pba3d011770)" d="M 57.6 62.162308 
L 414.72 62.162308 
" style="fill:none;stroke:#b0b0b0;stroke-linecap:square;stroke-width:0.8;"/>
     </g>
     <g id="line2d_26">
      <g>
       <use style="stroke:#000000;stroke-width:0.8;" x="57.6" xlink:href="#mbcbe265452" y="62.162308"/>
      </g>
     </g>
     <g id="text_14">
      <!-- 0.25 -->
      <g transform="translate(28.334375 65.961527)scale(0.1 -0.1)">
       <use xlink:href="#DejaVuSans-30"/>
       <use x="63.623047" xlink:href="#DejaVuSans-2e"/>
       <use x="95.410156" xlink:href="#DejaVuSans-32"/>
       <use x="159.033203" xlink:href="#DejaVuSans-35"/>
      </g>
     </g>
    </g>
    <g id="text_15">
     <!-- SGM ratio -->
     <defs>
      <path d="M 59.515625 10.40625 
L 59.515625 29.984375 
L 43.40625 29.984375 
L 43.40625 38.09375 
L 69.28125 38.09375 
L 69.28125 6.78125 
Q 63.578125 2.734375 56.6875 0.65625 
Q 49.8125 -1.421875 42 -1.421875 
Q 24.90625 -1.421875 15.25 8.5625 
Q 5.609375 18.5625 5.609375 36.375 
Q 5.609375 54.25 15.25 64.234375 
Q 24.90625 74.21875 42 74.21875 
Q 49.125 74.21875 55.546875 72.453125 
Q 61.96875 70.703125 67.390625 67.28125 
L 67.390625 56.78125 
Q 61.921875 61.421875 55.765625 63.765625 
Q 49.609375 66.109375 42.828125 66.109375 
Q 29.4375 66.109375 22.71875 58.640625 
Q 16.015625 51.171875 16.015625 36.375 
Q 16.015625 21.625 22.71875 14.15625 
Q 29.4375 6.6875 42.828125 6.6875 
Q 48.046875 6.6875 52.140625 7.59375 
Q 56.25 8.5 59.515625 10.40625 
z
" id="DejaVuSans-47"/>
      <path d="M 9.8125 72.90625 
L 24.515625 72.90625 
L 43.109375 23.296875 
L 61.8125 72.90625 
L 76.515625 72.90625 
L 76.515625 0 
L 66.890625 0 
L 66.890625 64.015625 
L 48.09375 14.015625 
L 38.1875 14.015625 
L 19.390625 64.015625 
L 19.390625 0 
L 9.8125 0 
z
" id="DejaVuSans-4d"/>
      <path d="M 34.28125 27.484375 
Q 23.390625 27.484375 19.1875 25 
Q 14.984375 22.515625 14.984375 16.5 
Q 14.984375 11.71875 18.140625 8.90625 
Q 21.296875 6.109375 26.703125 6.109375 
Q 34.1875 6.109375 38.703125 11.40625 
Q 43.21875 16.703125 43.21875 25.484375 
L 43.21875 27.484375 
z
M 52.203125 31.203125 
L 52.203125 0 
L 43.21875 0 
L 43.21875 8.296875 
Q 40.140625 3.328125 35.546875 0.953125 
Q 30.953125 -1.421875 24.3125 -1.421875 
Q 15.921875 -1.421875 10.953125 3.296875 
Q 6 8.015625 6 15.921875 
Q 6 25.140625 12.171875 29.828125 
Q 18.359375 34.515625 30.609375 34.515625 
L 43.21875 34.515625 
L 43.21875 35.40625 
Q 43.21875 41.609375 39.140625 45 
Q 35.0625 48.390625 27.6875 48.390625 
Q 23 48.390625 18.546875 47.265625 
Q 14.109375 46.140625 10.015625 43.890625 
L 10.015625 52.203125 
Q 14.9375 54.109375 19.578125 55.046875 
Q 24.21875 56 28.609375 56 
Q 40.484375 56 46.34375 49.84375 
Q 52.203125 43.703125 52.203125 31.203125 
z
" id="DejaVuSans-61"/>
     </defs>
     <g transform="translate(22.254687 199.007688)rotate(-90)scale(0.1 -0.1)">
      <use xlink:href="#DejaVuSans-53"/>
      <use x="63.476562" xlink:href="#DejaVuSans-47"/>
      <use x="140.966797" xlink:href="#DejaVuSans-4d"/>
      <use x="227.246094" xlink:href="#DejaVuSans-20"/>
      <use x="259.033203" xlink:href="#DejaVuSans-72"/>
      <use x="300.146484" xlink:href="#DejaVuSans-61"/>
      <use x="361.425781" xlink:href="#DejaVuSans-74"/>
      <use x="400.634766" xlink:href="#DejaVuSans-69"/>
      <use x="428.417969" xlink:href="#DejaVuSans-6f"/>
     </g>
    </g>
   </g>
   <g id="LineCollection_1">
    <path clip-path="url(#pba3d011770)" d="M 73.832727 290.853976 
L 73.832727 290.853976 
" style="fill:none;stroke:#1f77b4;stroke-width:1.5;"/>
    <path clip-path="url(#pba3d011770)" d="M 98.806154 237.274052 
L 98.806154 237.274052 
" style="fill:none;stroke:#1f77b4;stroke-width:1.5;"/>
    <path clip-path="url(#pba3d011770)" d="M 123.77958 210.59827 
L 123.77958 210.59827 
" style="fill:none;stroke:#1f77b4;stroke-width:1.5;"/>
    <path clip-path="url(#pba3d011770)" d="M 148.753007 192.517726 
L 148.753007 192.517726 
" style="fill:none;stroke:#1f77b4;stroke-width:1.5;"/>
    <path clip-path="url(#pba3d011770)" d="M 173.726434 168.484263 
L 173.726434 168.484263 
" style="fill:none;stroke:#1f77b4;stroke-width:1.5;"/>
    <path clip-path="url(#pba3d011770)" d="M 198.69986 138.038209 
L 198.69986 138.038209 
" style="fill:none;stroke:#1f77b4;stroke-width:1.5;"/>
    <path clip-path="url(#pba3d011770)" d="M 223.673287 120.079713 
L 223.673287 120.079713 
" style="fill:none;stroke:#1f77b4;stroke-width:1.5;"/>
    <path clip-path="url(#pba3d011770)" d="M 248.646713 106.081736 
L 248.646713 106.081736 
" style="fill:none;stroke:#1f77b4;stroke-width:1.5;"/>
    <path clip-path="url(#pba3d011770)" d="M 273.62014 98.531535 
L 273.62014 98.531535 
" style="fill:none;stroke:#1f77b4;stroke-width:1.5;"/>
    <path clip-path="url(#pba3d011770)" d="M 298.593566 96.822452 
L 298.593566 96.822452 
" style="fill:none;stroke:#1f77b4;stroke-width:1.5;"/>
    <path clip-path="url(#pba3d011770)" d="M 323.566993 82.961482 
L 323.566993 82.961482 
" style="fill:none;stroke:#1f77b4;stroke-width:1.5;"/>
    <path clip-path="url(#pba3d011770)" d="M 348.54042 82.424645 
L 348.54042 82.424645 
" style="fill:none;stroke:#1f77b4;stroke-width:1.5;"/>
    <path clip-path="url(#pba3d011770)" d="M 373.513846 82.179987 
L 373.513846 82.179987 
" style="fill:none;stroke:#1f77b4;stroke-width:1.5;"/>
    <path clip-path="url(#pba3d011770)" d="M 398.487273 80.737122 
L 398.487273 80.737122 
" style="fill:none;stroke:#1f77b4;stroke-width:1.5;"/>
   </g>
   <g id="LineCollection_2">
    <path clip-path="url(#pba3d011770)" d="M 73.832727 276.448745 
L 73.832727 223.12497 
" style="fill:none;stroke:#ff7f0e;stroke-width:1.5;"/>
    <path clip-path="url(#pba3d011770)" d="M 98.806154 210.336943 
L 98.806154 164.282257 
" style="fill:none;stroke:#ff7f0e;stroke-width:1.5;"/>
    <path clip-path="url(#pba3d011770)" d="M 123.77958 180.823447 
L 123.77958 135.640373 
" style="fill:none;stroke:#ff7f0e;stroke-width:1.5;"/>
    <path clip-path="url(#pba3d011770)" d="M 148.753007 163.283248 
L 148.753007 116.448405 
" style="fill:none;stroke:#ff7f0e;stroke-width:1.5;"/>
    <path clip-path="url(#pba3d011770)" d="M 173.726434 151.323515 
L 173.726434 102.80098 
" style="fill:none;stroke:#ff7f0e;stroke-width:1.5;"/>
    <path clip-path="url(#pba3d011770)" d="M 198.69986 141.816288 
L 198.69986 93.220554 
" style="fill:none;stroke:#ff7f0e;stroke-width:1.5;"/>
    <path clip-path="url(#pba3d011770)" d="M 223.673287 133.321454 
L 223.673287 83.737884 
" style="fill:none;stroke:#ff7f0e;stroke-width:1.5;"/>
    <path clip-path="url(#pba3d011770)" d="M 248.646713 128.953053 
L 248.646713 75.648108 
" style="fill:none;stroke:#ff7f0e;stroke-width:1.5;"/>
    <path clip-path="url(#pba3d011770)" d="M 273.62014 124.952039 
L 273.62014 71.301202 
" style="fill:none;stroke:#ff7f0e;stroke-width:1.5;"/>
    <path clip-path="url(#pba3d011770)" d="M 298.593566 120.635518 
L 298.593566 65.24007 
" style="fill:none;stroke:#ff7f0e;stroke-width:1.5;"/>
    <path clip-path="url(#pba3d011770)" d="M 323.566993 116.862346 
L 323.566993 61.630787 
" style="fill:none;stroke:#ff7f0e;stroke-width:1.5;"/>
    <path clip-path="url(#pba3d011770)" d="M 348.54042 114.985787 
L 348.54042 58.979553 
" style="fill:none;stroke:#ff7f0e;stroke-width:1.5;"/>
    <path clip-path="url(#pba3d011770)" d="M 373.513846 112.02639 
L 373.513846 54.596086 
" style="fill:none;stroke:#ff7f0e;stroke-width:1.5;"/>
    <path clip-path="url(#pba3d011770)" d="M 398.487273 111.045265 
L 398.487273 53.568 
" style="fill:none;stroke:#ff7f0e;stroke-width:1.5;"/>
   </g>
   <g id="LineCollection_3">
    <path clip-path="url(#pba3d011770)" d="M 73.832727 282.341946 
L 73.832727 223.351714 
" style="fill:none;stroke:#2ca02c;stroke-width:1.5;"/>
    <path clip-path="url(#pba3d011770)" d="M 98.806154 211.950088 
L 98.806154 163.979532 
" style="fill:none;stroke:#2ca02c;stroke-width:1.5;"/>
    <path clip-path="url(#pba3d011770)" d="M 123.77958 180.632757 
L 123.77958 135.438008 
" style="fill:none;stroke:#2ca02c;stroke-width:1.5;"/>
    <path clip-path="url(#pba3d011770)" d="M 148.753007 162.175989 
L 148.753007 117.274569 
" style="fill:none;stroke:#2ca02c;stroke-width:1.5;"/>
    <path clip-path="url(#pba3d011770)" d="M 173.726434 149.631752 
L 173.726434 104.55981 
" style="fill:none;stroke:#2ca02c;stroke-width:1.5;"/>
    <path clip-path="url(#pba3d011770)" d="M 198.69986 139.82673 
L 198.69986 91.924 
" style="fill:none;stroke:#2ca02c;stroke-width:1.5;"/>
    <path clip-path="url(#pba3d011770)" d="M 223.673287 133.232132 
L 223.673287 84.81231 
" style="fill:none;stroke:#2ca02c;stroke-width:1.5;"/>
    <path clip-path="url(#pba3d011770)" d="M 248.646713 128.371037 
L 248.646713 79.531792 
" style="fill:none;stroke:#2ca02c;stroke-width:1.5;"/>
    <path clip-path="url(#pba3d011770)" d="M 273.62014 123.381529 
L 273.62014 74.241327 
" style="fill:none;stroke:#2ca02c;stroke-width:1.5;"/>
    <path clip-path="url(#pba3d011770)" d="M 298.593566 119.462189 
L 298.593566 68.887463 
" style="fill:none;stroke:#2ca02c;stroke-width:1.5;"/>
    <path clip-path="url(#pba3d011770)" d="M 323.566993 113.681585 
L 323.566993 64.662607 
" style="fill:none;stroke:#2ca02c;stroke-width:1.5;"/>
    <path clip-path="url(#pba3d011770)" d="M 348.54042 109.815559 
L 348.54042 61.169708 
" style="fill:none;stroke:#2ca02c;stroke-width:1.5;"/>
    <path clip-path="url(#pba3d011770)" d="M 373.513846 107.884697 
L 373.513846 58.286451 
" style="fill:none;stroke:#2ca02c;stroke-width:1.5;"/>
    <path clip-path="url(#pba3d011770)" d="M 398.487273 107.157685 
L 398.487273 57.356612 
" style="fill:none;stroke:#2ca02c;stroke-width:1.5;"/>
   </g>
   <g id="LineCollection_4">
    <path clip-path="url(#pba3d011770)" d="M 73.832727 295.488 
L 73.832727 234.9188 
" style="fill:none;stroke:#d62728;stroke-width:1.5;"/>
    <path clip-path="url(#pba3d011770)" d="M 98.806154 211.294293 
L 98.806154 168.089145 
" style="fill:none;stroke:#d62728;stroke-width:1.5;"/>
    <path clip-path="url(#pba3d011770)" d="M 123.77958 181.925717 
L 123.77958 138.745648 
" style="fill:none;stroke:#d62728;stroke-width:1.5;"/>
    <path clip-path="url(#pba3d011770)" d="M 148.753007 165.147038 
L 148.753007 118.925139 
" style="fill:none;stroke:#d62728;stroke-width:1.5;"/>
    <path clip-path="url(#pba3d011770)" d="M 173.726434 151.532073 
L 173.726434 105.040738 
" style="fill:none;stroke:#d62728;stroke-width:1.5;"/>
    <path clip-path="url(#pba3d011770)" d="M 198.69986 141.562467 
L 198.69986 93.591515 
" style="fill:none;stroke:#d62728;stroke-width:1.5;"/>
    <path clip-path="url(#pba3d011770)" d="M 223.673287 133.859093 
L 223.673287 84.880986 
" style="fill:none;stroke:#d62728;stroke-width:1.5;"/>
    <path clip-path="url(#pba3d011770)" d="M 248.646713 127.13336 
L 248.646713 78.571498 
" style="fill:none;stroke:#d62728;stroke-width:1.5;"/>
    <path clip-path="url(#pba3d011770)" d="M 273.62014 120.934851 
L 273.62014 73.087875 
" style="fill:none;stroke:#d62728;stroke-width:1.5;"/>
    <path clip-path="url(#pba3d011770)" d="M 298.593566 116.647517 
L 298.593566 67.370199 
" style="fill:none;stroke:#d62728;stroke-width:1.5;"/>
    <path clip-path="url(#pba3d011770)" d="M 323.566993 113.068871 
L 323.566993 63.923964 
" style="fill:none;stroke:#d62728;stroke-width:1.5;"/>
    <path clip-path="url(#pba3d011770)" d="M 348.54042 110.491554 
L 348.54042 60.729958 
" style="fill:none;stroke:#d62728;stroke-width:1.5;"/>
    <path clip-path="url(#pba3d011770)" d="M 373.513846 108.148105 
L 373.513846 58.606947 
" style="fill:none;stroke:#d62728;stroke-width:1.5;"/>
    <path clip-path="url(#pba3d011770)" d="M 398.487273 107.157685 
L 398.487273 57.356612 
" style="fill:none;stroke:#d62728;stroke-width:1.5;"/>
   </g>
   <g id="LineCollection_5">
    <path clip-path="url(#pba3d011770)" d="M 73.832727 279.527666 
L 73.832727 217.767588 
" style="fill:none;stroke:#9467bd;stroke-width:1.5;"/>
    <path clip-path="url(#pba3d011770)" d="M 98.806154 213.08213 
L 98.806154 173.011124 
" style="fill:none;stroke:#9467bd;stroke-width:1.5;"/>
    <path clip-path="url(#pba3d011770)" d="M 123.77958 186.394906 
L 123.77958 144.980808 
" style="fill:none;stroke:#9467bd;stroke-width:1.5;"/>
    <path clip-path="url(#pba3d011770)" d="M 148.753007 172.373499 
L 148.753007 130.796639 
" style="fill:none;stroke:#9467bd;stroke-width:1.5;"/>
    <path clip-path="url(#pba3d011770)" d="M 173.726434 159.897091 
L 173.726434 117.41369 
" style="fill:none;stroke:#9467bd;stroke-width:1.5;"/>
    <path clip-path="url(#pba3d011770)" d="M 198.69986 148.653085 
L 198.69986 103.054708 
" style="fill:none;stroke:#9467bd;stroke-width:1.5;"/>
    <path clip-path="url(#pba3d011770)" d="M 223.673287 137.920455 
L 223.673287 91.155439 
" style="fill:none;stroke:#9467bd;stroke-width:1.5;"/>
    <path clip-path="url(#pba3d011770)" d="M 248.646713 130.316091 
L 248.646713 82.903513 
" style="fill:none;stroke:#9467bd;stroke-width:1.5;"/>
    <path clip-path="url(#pba3d011770)" d="M 273.62014 122.575931 
L 273.62014 74.858066 
" style="fill:none;stroke:#9467bd;stroke-width:1.5;"/>
    <path clip-path="url(#pba3d011770)" d="M 298.593566 117.030428 
L 298.593566 69.307825 
" style="fill:none;stroke:#9467bd;stroke-width:1.5;"/>
    <path clip-path="url(#pba3d011770)" d="M 323.566993 112.771264 
L 323.566993 64.470415 
" style="fill:none;stroke:#9467bd;stroke-width:1.5;"/>
    <path clip-path="url(#pba3d011770)" d="M 348.54042 109.270798 
L 348.54042 59.74438 
" style="fill:none;stroke:#9467bd;stroke-width:1.5;"/>
    <path clip-path="url(#pba3d011770)" d="M 373.513846 108.140033 
L 373.513846 58.574636 
" style="fill:none;stroke:#9467bd;stroke-width:1.5;"/>
    <path clip-path="url(#pba3d011770)" d="M 398.487273 107.157685 
L 398.487273 57.356612 
" style="fill:none;stroke:#9467bd;stroke-width:1.5;"/>
   </g>
   <g id="line2d_27">
    <path clip-path="url(#pba3d011770)" d="M 73.832727 290.853976 
L 98.806154 237.274052 
L 123.77958 210.59827 
L 148.753007 192.517726 
L 173.726434 168.484263 
L 198.69986 138.038209 
L 223.673287 120.079713 
L 248.646713 106.081736 
L 273.62014 98.531535 
L 298.593566 96.822452 
L 323.566993 82.961482 
L 348.54042 82.424645 
L 373.513846 82.179987 
L 398.487273 80.737122 
" style="fill:none;stroke:#1f77b4;stroke-linecap:square;stroke-width:1.5;"/>
    <defs>
     <path d="M 0 3 
C 0.795609 3 1.55874 2.683901 2.12132 2.12132 
C 2.683901 1.55874 3 0.795609 3 0 
C 3 -0.795609 2.683901 -1.55874 2.12132 -2.12132 
C 1.55874 -2.683901 0.795609 -3 0 -3 
C -0.795609 -3 -1.55874 -2.683901 -2.12132 -2.12132 
C -2.683901 -1.55874 -3 -0.795609 -3 0 
C -3 0.795609 -2.683901 1.55874 -2.12132 2.12132 
C -1.55874 2.683901 -0.795609 3 0 3 
z
" id="m51eaff3b67" style="stroke:#1f77b4;"/>
    </defs>
    <g clip-path="url(#pba3d011770)">
     <use style="fill:#1f77b4;stroke:#1f77b4;" x="73.832727" xlink:href="#m51eaff3b67" y="290.853976"/>
     <use style="fill:#1f77b4;stroke:#1f77b4;" x="98.806154" xlink:href="#m51eaff3b67" y="237.274052"/>
     <use style="fill:#1f77b4;stroke:#1f77b4;" x="123.77958" xlink:href="#m51eaff3b67" y="210.59827"/>
     <use style="fill:#1f77b4;stroke:#1f77b4;" x="148.753007" xlink:href="#m51eaff3b67" y="192.517726"/>
     <use style="fill:#1f77b4;stroke:#1f77b4;" x="173.726434" xlink:href="#m51eaff3b67" y="168.484263"/>
     <use style="fill:#1f77b4;stroke:#1f77b4;" x="198.69986" xlink:href="#m51eaff3b67" y="138.038209"/>
     <use style="fill:#1f77b4;stroke:#1f77b4;" x="223.673287" xlink:href="#m51eaff3b67" y="120.079713"/>
     <use style="fill:#1f77b4;stroke:#1f77b4;" x="248.646713" xlink:href="#m51eaff3b67" y="106.081736"/>
     <use style="fill:#1f77b4;stroke:#1f77b4;" x="273.62014" xlink:href="#m51eaff3b67" y="98.531535"/>
     <use style="fill:#1f77b4;stroke:#1f77b4;" x="298.593566" xlink:href="#m51eaff3b67" y="96.822452"/>
     <use style="fill:#1f77b4;stroke:#1f77b4;" x="323.566993" xlink:href="#m51eaff3b67" y="82.961482"/>
     <use style="fill:#1f77b4;stroke:#1f77b4;" x="348.54042" xlink:href="#m51eaff3b67" y="82.424645"/>
     <use style="fill:#1f77b4;stroke:#1f77b4;" x="373.513846" xlink:href="#m51eaff3b67" y="82.179987"/>
     <use style="fill:#1f77b4;stroke:#1f77b4;" x="398.487273" xlink:href="#m51eaff3b67" y="80.737122"/>
    </g>
   </g>
   <g id="line2d_28">
    <path clip-path="url(#pba3d011770)" d="M 73.832727 249.786858 
L 98.806154 187.3096 
L 123.77958 158.23191 
L 148.753007 139.865827 
L 173.726434 127.062247 
L 198.69986 117.518421 
L 223.673287 108.529669 
L 248.646713 102.300581 
L 273.62014 98.12662 
L 298.593566 92.937794 
L 323.566993 89.246566 
L 348.54042 86.98267 
L 373.513846 83.311238 
L 398.487273 82.306632 
" style="fill:none;stroke:#ff7f0e;stroke-linecap:square;stroke-width:1.5;"/>
    <defs>
     <path d="M 0 3 
C 0.795609 3 1.55874 2.683901 2.12132 2.12132 
C 2.683901 1.55874 3 0.795609 3 0 
C 3 -0.795609 2.683901 -1.55874 2.12132 -2.12132 
C 1.55874 -2.683901 0.795609 -3 0 -3 
C -0.795609 -3 -1.55874 -2.683901 -2.12132 -2.12132 
C -2.683901 -1.55874 -3 -0.795609 -3 0 
C -3 0.795609 -2.683901 1.55874 -2.12132 2.12132 
C -1.55874 2.683901 -0.795609 3 0 3 
z
" id="m1e74eb7000" style="stroke:#ff7f0e;"/>
    </defs>
    <g clip-path="url(#pba3d011770)">
     <use style="fill:#ff7f0e;stroke:#ff7f0e;" x="73.832727" xlink:href="#m1e74eb7000" y="249.786858"/>
     <use style="fill:#ff7f0e;stroke:#ff7f0e;" x="98.806154" xlink:href="#m1e74eb7000" y="187.3096"/>
     <use style="fill:#ff7f0e;stroke:#ff7f0e;" x="123.77958" xlink:href="#m1e74eb7000" y="158.23191"/>
     <use style="fill:#ff7f0e;stroke:#ff7f0e;" x="148.753007" xlink:href="#m1e74eb7000" y="139.865827"/>
     <use style="fill:#ff7f0e;stroke:#ff7f0e;" x="173.726434" xlink:href="#m1e74eb7000" y="127.062247"/>
     <use style="fill:#ff7f0e;stroke:#ff7f0e;" x="198.69986" xlink:href="#m1e74eb7000" y="117.518421"/>
     <use style="fill:#ff7f0e;stroke:#ff7f0e;" x="223.673287" xlink:href="#m1e74eb7000" y="108.529669"/>
     <use style="fill:#ff7f0e;stroke:#ff7f0e;" x="248.646713" xlink:href="#m1e74eb7000" y="102.300581"/>
     <use style="fill:#ff7f0e;stroke:#ff7f0e;" x="273.62014" xlink:href="#m1e74eb7000" y="98.12662"/>
     <use style="fill:#ff7f0e;stroke:#ff7f0e;" x="298.593566" xlink:href="#m1e74eb7000" y="92.937794"/>
     <use style="fill:#ff7f0e;stroke:#ff7f0e;" x="323.566993" xlink:href="#m1e74eb7000" y="89.246566"/>
     <use style="fill:#ff7f0e;stroke:#ff7f0e;" x="348.54042" xlink:href="#m1e74eb7000" y="86.98267"/>
     <use style="fill:#ff7f0e;stroke:#ff7f0e;" x="373.513846" xlink:href="#m1e74eb7000" y="83.311238"/>
     <use style="fill:#ff7f0e;stroke:#ff7f0e;" x="398.487273" xlink:href="#m1e74eb7000" y="82.306632"/>
    </g>
   </g>
   <g id="line2d_29">
    <path clip-path="url(#pba3d011770)" d="M 73.832727 252.84683 
L 98.806154 187.96481 
L 123.77958 158.035383 
L 148.753007 139.725279 
L 173.726434 127.095781 
L 198.69986 115.875365 
L 223.673287 109.022221 
L 248.646713 103.951415 
L 273.62014 98.811428 
L 298.593566 94.174826 
L 323.566993 89.172096 
L 348.54042 85.492634 
L 373.513846 83.085574 
L 398.487273 82.257148 
" style="fill:none;stroke:#2ca02c;stroke-linecap:square;stroke-width:1.5;"/>
    <defs>
     <path d="M 0 3 
C 0.795609 3 1.55874 2.683901 2.12132 2.12132 
C 2.683901 1.55874 3 0.795609 3 0 
C 3 -0.795609 2.683901 -1.55874 2.12132 -2.12132 
C 1.55874 -2.683901 0.795609 -3 0 -3 
C -0.795609 -3 -1.55874 -2.683901 -2.12132 -2.12132 
C -2.683901 -1.55874 -3 -0.795609 -3 0 
C -3 0.795609 -2.683901 1.55874 -2.12132 2.12132 
C -1.55874 2.683901 -0.795609 3 0 3 
z
" id="m8f978eaf82" style="stroke:#2ca02c;"/>
    </defs>
    <g clip-path="url(#pba3d011770)">
     <use style="fill:#2ca02c;stroke:#2ca02c;" x="73.832727" xlink:href="#m8f978eaf82" y="252.84683"/>
     <use style="fill:#2ca02c;stroke:#2ca02c;" x="98.806154" xlink:href="#m8f978eaf82" y="187.96481"/>
     <use style="fill:#2ca02c;stroke:#2ca02c;" x="123.77958" xlink:href="#m8f978eaf82" y="158.035383"/>
     <use style="fill:#2ca02c;stroke:#2ca02c;" x="148.753007" xlink:href="#m8f978eaf82" y="139.725279"/>
     <use style="fill:#2ca02c;stroke:#2ca02c;" x="173.726434" xlink:href="#m8f978eaf82" y="127.095781"/>
     <use style="fill:#2ca02c;stroke:#2ca02c;" x="198.69986" xlink:href="#m8f978eaf82" y="115.875365"/>
     <use style="fill:#2ca02c;stroke:#2ca02c;" x="223.673287" xlink:href="#m8f978eaf82" y="109.022221"/>
     <use style="fill:#2ca02c;stroke:#2ca02c;" x="248.646713" xlink:href="#m8f978eaf82" y="103.951415"/>
     <use style="fill:#2ca02c;stroke:#2ca02c;" x="273.62014" xlink:href="#m8f978eaf82" y="98.811428"/>
     <use style="fill:#2ca02c;stroke:#2ca02c;" x="298.593566" xlink:href="#m8f978eaf82" y="94.174826"/>
     <use style="fill:#2ca02c;stroke:#2ca02c;" x="323.566993" xlink:href="#m8f978eaf82" y="89.172096"/>
     <use style="fill:#2ca02c;stroke:#2ca02c;" x="348.54042" xlink:href="#m8f978eaf82" y="85.492634"/>
     <use style="fill:#2ca02c;stroke:#2ca02c;" x="373.513846" xlink:href="#m8f978eaf82" y="83.085574"/>
     <use style="fill:#2ca02c;stroke:#2ca02c;" x="398.487273" xlink:href="#m8f978eaf82" y="82.257148"/>
    </g>
   </g>
   <g id="line2d_30">
    <path clip-path="url(#pba3d011770)" d="M 73.832727 265.2034 
L 98.806154 189.691719 
L 123.77958 160.335683 
L 148.753007 142.036089 
L 173.726434 128.286405 
L 198.69986 117.576991 
L 223.673287 109.370039 
L 248.646713 102.852429 
L 273.62014 97.011363 
L 298.593566 92.008858 
L 323.566993 88.496417 
L 348.54042 85.610756 
L 373.513846 83.377526 
L 398.487273 82.257148 
" style="fill:none;stroke:#d62728;stroke-linecap:square;stroke-width:1.5;"/>
    <defs>
     <path d="M 0 3 
C 0.795609 3 1.55874 2.683901 2.12132 2.12132 
C 2.683901 1.55874 3 0.795609 3 0 
C 3 -0.795609 2.683901 -1.55874 2.12132 -2.12132 
C 1.55874 -2.683901 0.795609 -3 0 -3 
C -0.795609 -3 -1.55874 -2.683901 -2.12132 -2.12132 
C -2.683901 -1.55874 -3 -0.795609 -3 0 
C -3 0.795609 -2.683901 1.55874 -2.12132 2.12132 
C -1.55874 2.683901 -0.795609 3 0 3 
z
" id="mc14f5db00b" style="stroke:#d62728;"/>
    </defs>
    <g clip-path="url(#pba3d011770)">
     <use style="fill:#d62728;stroke:#d62728;" x="73.832727" xlink:href="#mc14f5db00b" y="265.2034"/>
     <use style="fill:#d62728;stroke:#d62728;" x="98.806154" xlink:href="#mc14f5db00b" y="189.691719"/>
     <use style="fill:#d62728;stroke:#d62728;" x="123.77958" xlink:href="#mc14f5db00b" y="160.335683"/>
     <use style="fill:#d62728;stroke:#d62728;" x="148.753007" xlink:href="#mc14f5db00b" y="142.036089"/>
     <use style="fill:#d62728;stroke:#d62728;" x="173.726434" xlink:href="#mc14f5db00b" y="128.286405"/>
     <use style="fill:#d62728;stroke:#d62728;" x="198.69986" xlink:href="#mc14f5db00b" y="117.576991"/>
     <use style="fill:#d62728;stroke:#d62728;" x="223.673287" xlink:href="#mc14f5db00b" y="109.370039"/>
     <use style="fill:#d62728;stroke:#d62728;" x="248.646713" xlink:href="#mc14f5db00b" y="102.852429"/>
     <use style="fill:#d62728;stroke:#d62728;" x="273.62014" xlink:href="#mc14f5db00b" y="97.011363"/>
     <use style="fill:#d62728;stroke:#d62728;" x="298.593566" xlink:href="#mc14f5db00b" y="92.008858"/>
     <use style="fill:#d62728;stroke:#d62728;" x="323.566993" xlink:href="#mc14f5db00b" y="88.496417"/>
     <use style="fill:#d62728;stroke:#d62728;" x="348.54042" xlink:href="#mc14f5db00b" y="85.610756"/>
     <use style="fill:#d62728;stroke:#d62728;" x="373.513846" xlink:href="#mc14f5db00b" y="83.377526"/>
     <use style="fill:#d62728;stroke:#d62728;" x="398.487273" xlink:href="#mc14f5db00b" y="82.257148"/>
    </g>
   </g>
   <g id="line2d_31">
    <path clip-path="url(#pba3d011770)" d="M 73.832727 248.647627 
L 98.806154 193.046627 
L 123.77958 165.687857 
L 148.753007 151.585069 
L 173.726434 138.65539 
L 198.69986 125.853897 
L 223.673287 114.537947 
L 248.646713 106.609802 
L 273.62014 98.716999 
L 298.593566 93.169127 
L 323.566993 88.620839 
L 348.54042 84.507589 
L 373.513846 83.357335 
L 398.487273 82.257148 
" style="fill:none;stroke:#9467bd;stroke-linecap:square;stroke-width:1.5;"/>
    <defs>
     <path d="M 0 3 
C 0.795609 3 1.55874 2.683901 2.12132 2.12132 
C 2.683901 1.55874 3 0.795609 3 0 
C 3 -0.795609 2.683901 -1.55874 2.12132 -2.12132 
C 1.55874 -2.683901 0.795609 -3 0 -3 
C -0.795609 -3 -1.55874 -2.683901 -2.12132 -2.12132 
C -2.683901 -1.55874 -3 -0.795609 -3 0 
C -3 0.795609 -2.683901 1.55874 -2.12132 2.12132 
C -1.55874 2.683901 -0.795609 3 0 3 
z
" id="m99bd576f0e" style="stroke:#9467bd;"/>
    </defs>
    <g clip-path="url(#pba3d011770)">
     <use style="fill:#9467bd;stroke:#9467bd;" x="73.832727" xlink:href="#m99bd576f0e" y="248.647627"/>
     <use style="fill:#9467bd;stroke:#9467bd;" x="98.806154" xlink:href="#m99bd576f0e" y="193.046627"/>
     <use style="fill:#9467bd;stroke:#9467bd;" x="123.77958" xlink:href="#m99bd576f0e" y="165.687857"/>
     <use style="fill:#9467bd;stroke:#9467bd;" x="148.753007" xlink:href="#m99bd576f0e" y="151.585069"/>
     <use style="fill:#9467bd;stroke:#9467bd;" x="173.726434" xlink:href="#m99bd576f0e" y="138.65539"/>
     <use style="fill:#9467bd;stroke:#9467bd;" x="198.69986" xlink:href="#m99bd576f0e" y="125.853897"/>
     <use style="fill:#9467bd;stroke:#9467bd;" x="223.673287" xlink:href="#m99bd576f0e" y="114.537947"/>
     <use style="fill:#9467bd;stroke:#9467bd;" x="248.646713" xlink:href="#m99bd576f0e" y="106.609802"/>
     <use style="fill:#9467bd;stroke:#9467bd;" x="273.62014" xlink:href="#m99bd576f0e" y="98.716999"/>
     <use style="fill:#9467bd;stroke:#9467bd;" x="298.593566" xlink:href="#m99bd576f0e" y="93.169127"/>
     <use style="fill:#9467bd;stroke:#9467bd;" x="323.566993" xlink:href="#m99bd576f0e" y="88.620839"/>
     <use style="fill:#9467bd;stroke:#9467bd;" x="348.54042" xlink:href="#m99bd576f0e" y="84.507589"/>
     <use style="fill:#9467bd;stroke:#9467bd;" x="373.513846" xlink:href="#m99bd576f0e" y="83.357335"/>
     <use style="fill:#9467bd;stroke:#9467bd;" x="398.487273" xlink:href="#m99bd576f0e" y="82.257148"/>
    </g>
   </g>
   <g id="patch_3">
    <path d="M 57.6 307.584 
L 57.6 41.472 
" style="fill:none;stroke:#000000;stroke-linecap:square;stroke-linejoin:miter;stroke-width:0.8;"/>
   </g>
   <g id="patch_4">
    <path d="M 414.72 307.584 
L 414.72 41.472 
" style="fill:none;stroke:#000000;stroke-linecap:square;stroke-linejoin:miter;stroke-width:0.8;"/>
   </g>
   <g id="patch_5">
    <path d="M 57.6 307.584 
L 414.72 307.584 
" style="fill:none;stroke:#000000;stroke-linecap:square;stroke-linejoin:miter;stroke-width:0.8;"/>
   </g>
   <g id="patch_6">
    <path d="M 57.6 41.472 
L 414.72 41.472 
" style="fill:none;stroke:#000000;stroke-linecap:square;stroke-linejoin:miter;stroke-width:0.8;"/>
   </g>
   <g id="text_16">
    <!-- Portfolio performance -->
    <defs>
     <path d="M 19.671875 64.796875 
L 19.671875 37.40625 
L 32.078125 37.40625 
Q 38.96875 37.40625 42.71875 40.96875 
Q 46.484375 44.53125 46.484375 51.125 
Q 46.484375 57.671875 42.71875 61.234375 
Q 38.96875 64.796875 32.078125 64.796875 
z
M 9.8125 72.90625 
L 32.078125 72.90625 
Q 44.34375 72.90625 50.609375 67.359375 
Q 56.890625 61.8125 56.890625 51.125 
Q 56.890625 40.328125 50.609375 34.8125 
Q 44.34375 29.296875 32.078125 29.296875 
L 19.671875 29.296875 
L 19.671875 0 
L 9.8125 0 
z
" id="DejaVuSans-50"/>
     <path d="M 52 44.1875 
Q 55.375 50.25 60.0625 53.125 
Q 64.75 56 71.09375 56 
Q 79.640625 56 84.28125 50.015625 
Q 88.921875 44.046875 88.921875 33.015625 
L 88.921875 0 
L 79.890625 0 
L 79.890625 32.71875 
Q 79.890625 40.578125 77.09375 44.375 
Q 74.3125 48.1875 68.609375 48.1875 
Q 61.625 48.1875 57.5625 43.546875 
Q 53.515625 38.921875 53.515625 30.90625 
L 53.515625 0 
L 44.484375 0 
L 44.484375 32.71875 
Q 44.484375 40.625 41.703125 44.40625 
Q 38.921875 48.1875 33.109375 48.1875 
Q 26.21875 48.1875 22.15625 43.53125 
Q 18.109375 38.875 18.109375 30.90625 
L 18.109375 0 
L 9.078125 0 
L 9.078125 54.6875 
L 18.109375 54.6875 
L 18.109375 46.1875 
Q 21.1875 51.21875 25.484375 53.609375 
Q 29.78125 56 35.6875 56 
Q 41.65625 56 45.828125 52.96875 
Q 50 49.953125 52 44.1875 
z
" id="DejaVuSans-6d"/>
     <path d="M 54.890625 33.015625 
L 54.890625 0 
L 45.90625 0 
L 45.90625 32.71875 
Q 45.90625 40.484375 42.875 44.328125 
Q 39.84375 48.1875 33.796875 48.1875 
Q 26.515625 48.1875 22.3125 43.546875 
Q 18.109375 38.921875 18.109375 30.90625 
L 18.109375 0 
L 9.078125 0 
L 9.078125 54.6875 
L 18.109375 54.6875 
L 18.109375 46.1875 
Q 21.34375 51.125 25.703125 53.5625 
Q 30.078125 56 35.796875 56 
Q 45.21875 56 50.046875 50.171875 
Q 54.890625 44.34375 54.890625 33.015625 
z
" id="DejaVuSans-6e"/>
    </defs>
    <g transform="translate(170.828438 35.472)scale(0.12 -0.12)">
     <use xlink:href="#DejaVuSans-50"/>
     <use x="60.255859" xlink:href="#DejaVuSans-6f"/>
     <use x="121.4375" xlink:href="#DejaVuSans-72"/>
     <use x="162.550781" xlink:href="#DejaVuSans-74"/>
     <use x="201.759766" xlink:href="#DejaVuSans-66"/>
     <use x="236.964844" xlink:href="#DejaVuSans-6f"/>
     <use x="298.146484" xlink:href="#DejaVuSans-6c"/>
     <use x="325.929688" xlink:href="#DejaVuSans-69"/>
     <use x="353.712891" xlink:href="#DejaVuSans-6f"/>
     <use x="414.894531" xlink:href="#DejaVuSans-20"/>
     <use x="446.681641" xlink:href="#DejaVuSans-70"/>
     <use x="510.158203" xlink:href="#DejaVuSans-65"/>
     <use x="571.681641" xlink:href="#DejaVuSans-72"/>
     <use x="612.794922" xlink:href="#DejaVuSans-66"/>
     <use x="648" xlink:href="#DejaVuSans-6f"/>
     <use x="709.181641" xlink:href="#DejaVuSans-72"/>
     <use x="750.279297" xlink:href="#DejaVuSans-6d"/>
     <use x="847.691406" xlink:href="#DejaVuSans-61"/>
     <use x="908.970703" xlink:href="#DejaVuSans-6e"/>
     <use x="972.349609" xlink:href="#DejaVuSans-63"/>
     <use x="1027.330078" xlink:href="#DejaVuSans-65"/>
    </g>
   </g>
   <g id="legend_1">
    <g id="patch_7">
     <path d="M 63.2 106.5845 
L 203.7725 106.5845 
Q 205.3725 106.5845 205.3725 104.9845 
L 205.3725 47.072 
Q 205.3725 45.472 203.7725 45.472 
L 63.2 45.472 
Q 61.6 45.472 61.6 47.072 
L 61.6 104.9845 
Q 61.6 106.5845 63.2 106.5845 
z
" style="fill:#ffffff;opacity:0.8;stroke:#cccccc;stroke-linejoin:miter;"/>
    </g>
    <g id="LineCollection_6">
     <path d="M 72.8 55.95075 
L 72.8 47.95075 
" style="fill:none;stroke:#1f77b4;stroke-width:1.5;"/>
    </g>
    <g id="line2d_32">
     <path d="M 64.8 51.95075 
L 80.8 51.95075 
" style="fill:none;stroke:#1f77b4;stroke-linecap:square;stroke-width:1.5;"/>
    </g>
    <g id="line2d_33">
     <g>
      <use style="fill:#1f77b4;stroke:#1f77b4;" x="72.8" xlink:href="#m51eaff3b67" y="51.95075"/>
     </g>
    </g>
    <g id="text_17">
     <!-- Feature Independent -->
     <defs>
      <path d="M 9.8125 72.90625 
L 51.703125 72.90625 
L 51.703125 64.59375 
L 19.671875 64.59375 
L 19.671875 43.109375 
L 48.578125 43.109375 
L 48.578125 34.8125 
L 19.671875 34.8125 
L 19.671875 0 
L 9.8125 0 
z
" id="DejaVuSans-46"/>
      <path d="M 8.5 21.578125 
L 8.5 54.6875 
L 17.484375 54.6875 
L 17.484375 21.921875 
Q 17.484375 14.15625 20.5 10.265625 
Q 23.53125 6.390625 29.59375 6.390625 
Q 36.859375 6.390625 41.078125 11.03125 
Q 45.3125 15.671875 45.3125 23.6875 
L 45.3125 54.6875 
L 54.296875 54.6875 
L 54.296875 0 
L 45.3125 0 
L 45.3125 8.40625 
Q 42.046875 3.421875 37.71875 1 
Q 33.40625 -1.421875 27.6875 -1.421875 
Q 18.265625 -1.421875 13.375 4.4375 
Q 8.5 10.296875 8.5 21.578125 
z
M 31.109375 56 
z
" id="DejaVuSans-75"/>
      <path d="M 9.8125 72.90625 
L 19.671875 72.90625 
L 19.671875 0 
L 9.8125 0 
z
" id="DejaVuSans-49"/>
     </defs>
     <g transform="translate(87.2 54.75075)scale(0.08 -0.08)">
      <use xlink:href="#DejaVuSans-46"/>
      <use x="57.441406" xlink:href="#DejaVuSans-65"/>
      <use x="118.964844" xlink:href="#DejaVuSans-61"/>
      <use x="180.244141" xlink:href="#DejaVuSans-74"/>
      <use x="219.453125" xlink:href="#DejaVuSans-75"/>
      <use x="282.832031" xlink:href="#DejaVuSans-72"/>
      <use x="323.914062" xlink:href="#DejaVuSans-65"/>
      <use x="385.4375" xlink:href="#DejaVuSans-20"/>
      <use x="417.224609" xlink:href="#DejaVuSans-49"/>
      <use x="446.716797" xlink:href="#DejaVuSans-6e"/>
      <use x="510.095703" xlink:href="#DejaVuSans-64"/>
      <use x="573.572266" xlink:href="#DejaVuSans-65"/>
      <use x="635.095703" xlink:href="#DejaVuSans-70"/>
      <use x="698.572266" xlink:href="#DejaVuSans-65"/>
      <use x="760.095703" xlink:href="#DejaVuSans-6e"/>
      <use x="823.474609" xlink:href="#DejaVuSans-64"/>
      <use x="886.951172" xlink:href="#DejaVuSans-65"/>
      <use x="948.474609" xlink:href="#DejaVuSans-6e"/>
      <use x="1011.853516" xlink:href="#DejaVuSans-74"/>
     </g>
    </g>
    <g id="LineCollection_7">
     <path d="M 72.8 67.69325 
L 72.8 59.69325 
" style="fill:none;stroke:#ff7f0e;stroke-width:1.5;"/>
    </g>
    <g id="line2d_34">
     <path d="M 64.8 63.69325 
L 80.8 63.69325 
" style="fill:none;stroke:#ff7f0e;stroke-linecap:square;stroke-width:1.5;"/>
    </g>
    <g id="line2d_35">
     <g>
      <use style="fill:#ff7f0e;stroke:#ff7f0e;" x="72.8" xlink:href="#m1e74eb7000" y="63.69325"/>
     </g>
    </g>
    <g id="text_18">
     <!-- RFclass Hydra dynamic -->
     <defs>
      <path d="M 44.390625 34.1875 
Q 47.5625 33.109375 50.5625 29.59375 
Q 53.5625 26.078125 56.59375 19.921875 
L 66.609375 0 
L 56 0 
L 46.6875 18.703125 
Q 43.0625 26.03125 39.671875 28.421875 
Q 36.28125 30.8125 30.421875 30.8125 
L 19.671875 30.8125 
L 19.671875 0 
L 9.8125 0 
L 9.8125 72.90625 
L 32.078125 72.90625 
Q 44.578125 72.90625 50.734375 67.671875 
Q 56.890625 62.453125 56.890625 51.90625 
Q 56.890625 45.015625 53.6875 40.46875 
Q 50.484375 35.9375 44.390625 34.1875 
z
M 19.671875 64.796875 
L 19.671875 38.921875 
L 32.078125 38.921875 
Q 39.203125 38.921875 42.84375 42.21875 
Q 46.484375 45.515625 46.484375 51.90625 
Q 46.484375 58.296875 42.84375 61.546875 
Q 39.203125 64.796875 32.078125 64.796875 
z
" id="DejaVuSans-52"/>
      <path d="M 44.28125 53.078125 
L 44.28125 44.578125 
Q 40.484375 46.53125 36.375 47.5 
Q 32.28125 48.484375 27.875 48.484375 
Q 21.1875 48.484375 17.84375 46.4375 
Q 14.5 44.390625 14.5 40.28125 
Q 14.5 37.15625 16.890625 35.375 
Q 19.28125 33.59375 26.515625 31.984375 
L 29.59375 31.296875 
Q 39.15625 29.25 43.1875 25.515625 
Q 47.21875 21.78125 47.21875 15.09375 
Q 47.21875 7.46875 41.1875 3.015625 
Q 35.15625 -1.421875 24.609375 -1.421875 
Q 20.21875 -1.421875 15.453125 -0.5625 
Q 10.6875 0.296875 5.421875 2 
L 5.421875 11.28125 
Q 10.40625 8.6875 15.234375 7.390625 
Q 20.0625 6.109375 24.8125 6.109375 
Q 31.15625 6.109375 34.5625 8.28125 
Q 37.984375 10.453125 37.984375 14.40625 
Q 37.984375 18.0625 35.515625 20.015625 
Q 33.0625 21.96875 24.703125 23.78125 
L 21.578125 24.515625 
Q 13.234375 26.265625 9.515625 29.90625 
Q 5.8125 33.546875 5.8125 39.890625 
Q 5.8125 47.609375 11.28125 51.796875 
Q 16.75 56 26.8125 56 
Q 31.78125 56 36.171875 55.265625 
Q 40.578125 54.546875 44.28125 53.078125 
z
" id="DejaVuSans-73"/>
      <path d="M 9.8125 72.90625 
L 19.671875 72.90625 
L 19.671875 43.015625 
L 55.515625 43.015625 
L 55.515625 72.90625 
L 65.375 72.90625 
L 65.375 0 
L 55.515625 0 
L 55.515625 34.71875 
L 19.671875 34.71875 
L 19.671875 0 
L 9.8125 0 
z
" id="DejaVuSans-48"/>
      <path d="M 32.171875 -5.078125 
Q 28.375 -14.84375 24.75 -17.8125 
Q 21.140625 -20.796875 15.09375 -20.796875 
L 7.90625 -20.796875 
L 7.90625 -13.28125 
L 13.1875 -13.28125 
Q 16.890625 -13.28125 18.9375 -11.515625 
Q 21 -9.765625 23.484375 -3.21875 
L 25.09375 0.875 
L 2.984375 54.6875 
L 12.5 54.6875 
L 29.59375 11.921875 
L 46.6875 54.6875 
L 56.203125 54.6875 
z
" id="DejaVuSans-79"/>
     </defs>
     <g transform="translate(87.2 66.49325)scale(0.08 -0.08)">
      <use xlink:href="#DejaVuSans-52"/>
      <use x="69.482422" xlink:href="#DejaVuSans-46"/>
      <use x="127.001953" xlink:href="#DejaVuSans-63"/>
      <use x="181.982422" xlink:href="#DejaVuSans-6c"/>
      <use x="209.765625" xlink:href="#DejaVuSans-61"/>
      <use x="271.044922" xlink:href="#DejaVuSans-73"/>
      <use x="323.144531" xlink:href="#DejaVuSans-73"/>
      <use x="375.244141" xlink:href="#DejaVuSans-20"/>
      <use x="407.03125" xlink:href="#DejaVuSans-48"/>
      <use x="482.226562" xlink:href="#DejaVuSans-79"/>
      <use x="541.40625" xlink:href="#DejaVuSans-64"/>
      <use x="604.882812" xlink:href="#DejaVuSans-72"/>
      <use x="645.996094" xlink:href="#DejaVuSans-61"/>
      <use x="707.275391" xlink:href="#DejaVuSans-20"/>
      <use x="739.0625" xlink:href="#DejaVuSans-64"/>
      <use x="802.539062" xlink:href="#DejaVuSans-79"/>
      <use x="861.71875" xlink:href="#DejaVuSans-6e"/>
      <use x="925.097656" xlink:href="#DejaVuSans-61"/>
      <use x="986.376953" xlink:href="#DejaVuSans-6d"/>
      <use x="1083.789062" xlink:href="#DejaVuSans-69"/>
      <use x="1111.572266" xlink:href="#DejaVuSans-63"/>
     </g>
    </g>
    <g id="LineCollection_8">
     <path d="M 72.8 79.43575 
L 72.8 71.43575 
" style="fill:none;stroke:#2ca02c;stroke-width:1.5;"/>
    </g>
    <g id="line2d_36">
     <path d="M 64.8 75.43575 
L 80.8 75.43575 
" style="fill:none;stroke:#2ca02c;stroke-linecap:square;stroke-width:1.5;"/>
    </g>
    <g id="line2d_37">
     <g>
      <use style="fill:#2ca02c;stroke:#2ca02c;" x="72.8" xlink:href="#m8f978eaf82" y="75.43575"/>
     </g>
    </g>
    <g id="text_19">
     <!-- RFclass Hydra static -->
     <g transform="translate(87.2 78.23575)scale(0.08 -0.08)">
      <use xlink:href="#DejaVuSans-52"/>
      <use x="69.482422" xlink:href="#DejaVuSans-46"/>
      <use x="127.001953" xlink:href="#DejaVuSans-63"/>
      <use x="181.982422" xlink:href="#DejaVuSans-6c"/>
      <use x="209.765625" xlink:href="#DejaVuSans-61"/>
      <use x="271.044922" xlink:href="#DejaVuSans-73"/>
      <use x="323.144531" xlink:href="#DejaVuSans-73"/>
      <use x="375.244141" xlink:href="#DejaVuSans-20"/>
      <use x="407.03125" xlink:href="#DejaVuSans-48"/>
      <use x="482.226562" xlink:href="#DejaVuSans-79"/>
      <use x="541.40625" xlink:href="#DejaVuSans-64"/>
      <use x="604.882812" xlink:href="#DejaVuSans-72"/>
      <use x="645.996094" xlink:href="#DejaVuSans-61"/>
      <use x="707.275391" xlink:href="#DejaVuSans-20"/>
      <use x="739.0625" xlink:href="#DejaVuSans-73"/>
      <use x="791.162109" xlink:href="#DejaVuSans-74"/>
      <use x="830.371094" xlink:href="#DejaVuSans-61"/>
      <use x="891.650391" xlink:href="#DejaVuSans-74"/>
      <use x="930.859375" xlink:href="#DejaVuSans-69"/>
      <use x="958.642578" xlink:href="#DejaVuSans-63"/>
     </g>
    </g>
    <g id="LineCollection_9">
     <path d="M 72.8 91.17825 
L 72.8 83.17825 
" style="fill:none;stroke:#d62728;stroke-width:1.5;"/>
    </g>
    <g id="line2d_38">
     <path d="M 64.8 87.17825 
L 80.8 87.17825 
" style="fill:none;stroke:#d62728;stroke-linecap:square;stroke-width:1.5;"/>
    </g>
    <g id="line2d_39">
     <g>
      <use style="fill:#d62728;stroke:#d62728;" x="72.8" xlink:href="#mc14f5db00b" y="87.17825"/>
     </g>
    </g>
    <g id="text_20">
     <!-- RFregress Ada Reduce static -->
     <defs>
      <path d="M 45.40625 27.984375 
Q 45.40625 37.75 41.375 43.109375 
Q 37.359375 48.484375 30.078125 48.484375 
Q 22.859375 48.484375 18.828125 43.109375 
Q 14.796875 37.75 14.796875 27.984375 
Q 14.796875 18.265625 18.828125 12.890625 
Q 22.859375 7.515625 30.078125 7.515625 
Q 37.359375 7.515625 41.375 12.890625 
Q 45.40625 18.265625 45.40625 27.984375 
z
M 54.390625 6.78125 
Q 54.390625 -7.171875 48.1875 -13.984375 
Q 42 -20.796875 29.203125 -20.796875 
Q 24.46875 -20.796875 20.265625 -20.09375 
Q 16.0625 -19.390625 12.109375 -17.921875 
L 12.109375 -9.1875 
Q 16.0625 -11.328125 19.921875 -12.34375 
Q 23.78125 -13.375 27.78125 -13.375 
Q 36.625 -13.375 41.015625 -8.765625 
Q 45.40625 -4.15625 45.40625 5.171875 
L 45.40625 9.625 
Q 42.625 4.78125 38.28125 2.390625 
Q 33.9375 0 27.875 0 
Q 17.828125 0 11.671875 7.65625 
Q 5.515625 15.328125 5.515625 27.984375 
Q 5.515625 40.671875 11.671875 48.328125 
Q 17.828125 56 27.875 56 
Q 33.9375 56 38.28125 53.609375 
Q 42.625 51.21875 45.40625 46.390625 
L 45.40625 54.6875 
L 54.390625 54.6875 
z
" id="DejaVuSans-67"/>
      <path d="M 34.1875 63.1875 
L 20.796875 26.90625 
L 47.609375 26.90625 
z
M 28.609375 72.90625 
L 39.796875 72.90625 
L 67.578125 0 
L 57.328125 0 
L 50.6875 18.703125 
L 17.828125 18.703125 
L 11.1875 0 
L 0.78125 0 
z
" id="DejaVuSans-41"/>
     </defs>
     <g transform="translate(87.2 89.97825)scale(0.08 -0.08)">
      <use xlink:href="#DejaVuSans-52"/>
      <use x="69.482422" xlink:href="#DejaVuSans-46"/>
      <use x="126.892578" xlink:href="#DejaVuSans-72"/>
      <use x="167.974609" xlink:href="#DejaVuSans-65"/>
      <use x="229.498047" xlink:href="#DejaVuSans-67"/>
      <use x="292.974609" xlink:href="#DejaVuSans-72"/>
      <use x="334.056641" xlink:href="#DejaVuSans-65"/>
      <use x="395.580078" xlink:href="#DejaVuSans-73"/>
      <use x="447.679688" xlink:href="#DejaVuSans-73"/>
      <use x="499.779297" xlink:href="#DejaVuSans-20"/>
      <use x="531.566406" xlink:href="#DejaVuSans-41"/>
      <use x="599.958984" xlink:href="#DejaVuSans-64"/>
      <use x="663.435547" xlink:href="#DejaVuSans-61"/>
      <use x="724.714844" xlink:href="#DejaVuSans-20"/>
      <use x="756.501953" xlink:href="#DejaVuSans-52"/>
      <use x="825.921875" xlink:href="#DejaVuSans-65"/>
      <use x="887.445312" xlink:href="#DejaVuSans-64"/>
      <use x="950.921875" xlink:href="#DejaVuSans-75"/>
      <use x="1014.300781" xlink:href="#DejaVuSans-63"/>
      <use x="1069.28125" xlink:href="#DejaVuSans-65"/>
      <use x="1130.804688" xlink:href="#DejaVuSans-20"/>
      <use x="1162.591797" xlink:href="#DejaVuSans-73"/>
      <use x="1214.691406" xlink:href="#DejaVuSans-74"/>
      <use x="1253.900391" xlink:href="#DejaVuSans-61"/>
      <use x="1315.179688" xlink:href="#DejaVuSans-74"/>
      <use x="1354.388672" xlink:href="#DejaVuSans-69"/>
      <use x="1382.171875" xlink:href="#DejaVuSans-63"/>
     </g>
    </g>
    <g id="LineCollection_10">
     <path d="M 72.8 102.92075 
L 72.8 94.92075 
" style="fill:none;stroke:#9467bd;stroke-width:1.5;"/>
    </g>
    <g id="line2d_40">
     <path d="M 64.8 98.92075 
L 80.8 98.92075 
" style="fill:none;stroke:#9467bd;stroke-linecap:square;stroke-width:1.5;"/>
    </g>
    <g id="line2d_41">
     <g>
      <use style="fill:#9467bd;stroke:#9467bd;" x="72.8" xlink:href="#m99bd576f0e" y="98.92075"/>
     </g>
    </g>
    <g id="text_21">
     <!-- RFregress static -->
     <g transform="translate(87.2 101.72075)scale(0.08 -0.08)">
      <use xlink:href="#DejaVuSans-52"/>
      <use x="69.482422" xlink:href="#DejaVuSans-46"/>
      <use x="126.892578" xlink:href="#DejaVuSans-72"/>
      <use x="167.974609" xlink:href="#DejaVuSans-65"/>
      <use x="229.498047" xlink:href="#DejaVuSans-67"/>
      <use x="292.974609" xlink:href="#DejaVuSans-72"/>
      <use x="334.056641" xlink:href="#DejaVuSans-65"/>
      <use x="395.580078" xlink:href="#DejaVuSans-73"/>
      <use x="447.679688" xlink:href="#DejaVuSans-73"/>
      <use x="499.779297" xlink:href="#DejaVuSans-20"/>
      <use x="531.566406" xlink:href="#DejaVuSans-73"/>
      <use x="583.666016" xlink:href="#DejaVuSans-74"/>
      <use x="622.875" xlink:href="#DejaVuSans-61"/>
      <use x="684.154297" xlink:href="#DejaVuSans-74"/>
      <use x="723.363281" xlink:href="#DejaVuSans-69"/>
      <use x="751.146484" xlink:href="#DejaVuSans-63"/>
     </g>
    </g>
   </g>
  </g>
 </g>
 <defs>
  <clipPath id="pba3d011770">
   <rect height="266.112" width="357.12" x="57.6" y="41.472"/>
  </clipPath>
 </defs>
</svg>
