<?xml version="1.0" encoding="utf-8" standalone="no"?>
<!DOCTYPE svg PUBLIC "-//W3C//DTD SVG 1.1//EN"
  "http://www.w3.org/Graphics/SVG/1.1/DTD/svg11.dtd">
<!-- Created with matplotlib (http://matplotlib.org/) -->
<svg height="345pt" version="1.1" viewBox="0 0 460 345" width="460pt" xmlns="http://www.w3.org/2000/svg" xmlns:xlink="http://www.w3.org/1999/xlink">
 <defs>
  <style type="text/css">
*{stroke-linecap:butt;stroke-linejoin:round;}
  </style>
 </defs>
 <g id="figure_1">
  <g id="patch_1">
   <path d="M 0 345.6 
L 460.8 345.6 
L 460.8 0 
L 0 0 
z
" style="fill:#ffffff;"/>
  </g>
  <g id="axes_1">
   <g id="patch_2">
    <path d="M 57.6 307.584 
L 414.72 307.584 
L 414.72 41.472 
L 57.6 41.472 
z
" style="fill:#ffffff;"/>
   </g>
   <g id="matplotlib.axis_1">
    <g id="xtick_1">
     <g id="line2d_1">
      <path clip-path="url(#p6276a12da7)" d="M 98.806154 307.584 
L 98.806154 41.472 
" style="fill:none;stroke:#b0b0b0;stroke-linecap:square;stroke-width:0.8;"/>
     </g>
     <g id="line2d_2">
      <defs>
       <path d="M 0 0 
L 0 3.5 
" id="md4d64f11e9" style="stroke:#000000;stroke-width:0.8;"/>
      </defs>
      <g>
       <use style="stroke:#000000;stroke-width:0.8;" x="98.806154" xlink:href="#md4d64f11e9" y="307.584"/>
      </g>
     </g>
     <g id="text_1">
      <!-- 2 -->
      <defs>
       <path d="M 19.1875 8.296875 
L 53.609375 8.296875 
L 53.609375 0 
L 7.328125 0 
L 7.328125 8.296875 
Q 12.9375 14.109375 22.625 23.890625 
Q 32.328125 33.6875 34.8125 36.53125 
Q 39.546875 41.84375 41.421875 45.53125 
Q 43.3125 49.21875 43.3125 52.78125 
Q 43.3125 58.59375 39.234375 62.25 
Q 35.15625 65.921875 28.609375 65.921875 
Q 23.96875 65.921875 18.8125 64.3125 
Q 13.671875 62.703125 7.8125 59.421875 
L 7.8125 69.390625 
Q 13.765625 71.78125 18.9375 73 
Q 24.125 74.21875 28.421875 74.21875 
Q 39.75 74.21875 46.484375 68.546875 
Q 53.21875 62.890625 53.21875 53.421875 
Q 53.21875 48.921875 51.53125 44.890625 
Q 49.859375 40.875 45.40625 35.40625 
Q 44.1875 33.984375 37.640625 27.21875 
Q 31.109375 20.453125 19.1875 8.296875 
z
" id="DejaVuSans-32"/>
      </defs>
      <g transform="translate(95.624904 322.182437)scale(0.1 -0.1)">
       <use xlink:href="#DejaVuSans-32"/>
      </g>
     </g>
    </g>
    <g id="xtick_2">
     <g id="line2d_3">
      <path clip-path="url(#p6276a12da7)" d="M 148.753007 307.584 
L 148.753007 41.472 
" style="fill:none;stroke:#b0b0b0;stroke-linecap:square;stroke-width:0.8;"/>
     </g>
     <g id="line2d_4">
      <g>
       <use style="stroke:#000000;stroke-width:0.8;" x="148.753007" xlink:href="#md4d64f11e9" y="307.584"/>
      </g>
     </g>
     <g id="text_2">
      <!-- 4 -->
      <defs>
       <path d="M 37.796875 64.3125 
L 12.890625 25.390625 
L 37.796875 25.390625 
z
M 35.203125 72.90625 
L 47.609375 72.90625 
L 47.609375 25.390625 
L 58.015625 25.390625 
L 58.015625 17.1875 
L 47.609375 17.1875 
L 47.609375 0 
L 37.796875 0 
L 37.796875 17.1875 
L 4.890625 17.1875 
L 4.890625 26.703125 
z
" id="DejaVuSans-34"/>
      </defs>
      <g transform="translate(145.571757 322.182437)scale(0.1 -0.1)">
       <use xlink:href="#DejaVuSans-34"/>
      </g>
     </g>
    </g>
    <g id="xtick_3">
     <g id="line2d_5">
      <path clip-path="url(#p6276a12da7)" d="M 198.69986 307.584 
L 198.69986 41.472 
" style="fill:none;stroke:#b0b0b0;stroke-linecap:square;stroke-width:0.8;"/>
     </g>
     <g id="line2d_6">
      <g>
       <use style="stroke:#000000;stroke-width:0.8;" x="198.69986" xlink:href="#md4d64f11e9" y="307.584"/>
      </g>
     </g>
     <g id="text_3">
      <!-- 6 -->
      <defs>
       <path d="M 33.015625 40.375 
Q 26.375 40.375 22.484375 35.828125 
Q 18.609375 31.296875 18.609375 23.390625 
Q 18.609375 15.53125 22.484375 10.953125 
Q 26.375 6.390625 33.015625 6.390625 
Q 39.65625 6.390625 43.53125 10.953125 
Q 47.40625 15.53125 47.40625 23.390625 
Q 47.40625 31.296875 43.53125 35.828125 
Q 39.65625 40.375 33.015625 40.375 
z
M 52.59375 71.296875 
L 52.59375 62.3125 
Q 48.875 64.0625 45.09375 64.984375 
Q 41.3125 65.921875 37.59375 65.921875 
Q 27.828125 65.921875 22.671875 59.328125 
Q 17.53125 52.734375 16.796875 39.40625 
Q 19.671875 43.65625 24.015625 45.921875 
Q 28.375 48.1875 33.59375 48.1875 
Q 44.578125 48.1875 50.953125 41.515625 
Q 57.328125 34.859375 57.328125 23.390625 
Q 57.328125 12.15625 50.6875 5.359375 
Q 44.046875 -1.421875 33.015625 -1.421875 
Q 20.359375 -1.421875 13.671875 8.265625 
Q 6.984375 17.96875 6.984375 36.375 
Q 6.984375 53.65625 15.1875 63.9375 
Q 23.390625 74.21875 37.203125 74.21875 
Q 40.921875 74.21875 44.703125 73.484375 
Q 48.484375 72.75 52.59375 71.296875 
z
" id="DejaVuSans-36"/>
      </defs>
      <g transform="translate(195.51861 322.182437)scale(0.1 -0.1)">
       <use xlink:href="#DejaVuSans-36"/>
      </g>
     </g>
    </g>
    <g id="xtick_4">
     <g id="line2d_7">
      <path clip-path="url(#p6276a12da7)" d="M 248.646713 307.584 
L 248.646713 41.472 
" style="fill:none;stroke:#b0b0b0;stroke-linecap:square;stroke-width:0.8;"/>
     </g>
     <g id="line2d_8">
      <g>
       <use style="stroke:#000000;stroke-width:0.8;" x="248.646713" xlink:href="#md4d64f11e9" y="307.584"/>
      </g>
     </g>
     <g id="text_4">
      <!-- 8 -->
      <defs>
       <path d="M 31.78125 34.625 
Q 24.75 34.625 20.71875 30.859375 
Q 16.703125 27.09375 16.703125 20.515625 
Q 16.703125 13.921875 20.71875 10.15625 
Q 24.75 6.390625 31.78125 6.390625 
Q 38.8125 6.390625 42.859375 10.171875 
Q 46.921875 13.96875 46.921875 20.515625 
Q 46.921875 27.09375 42.890625 30.859375 
Q 38.875 34.625 31.78125 34.625 
z
M 21.921875 38.8125 
Q 15.578125 40.375 12.03125 44.71875 
Q 8.5 49.078125 8.5 55.328125 
Q 8.5 64.0625 14.71875 69.140625 
Q 20.953125 74.21875 31.78125 74.21875 
Q 42.671875 74.21875 48.875 69.140625 
Q 55.078125 64.0625 55.078125 55.328125 
Q 55.078125 49.078125 51.53125 44.71875 
Q 48 40.375 41.703125 38.8125 
Q 48.828125 37.15625 52.796875 32.3125 
Q 56.78125 27.484375 56.78125 20.515625 
Q 56.78125 9.90625 50.3125 4.234375 
Q 43.84375 -1.421875 31.78125 -1.421875 
Q 19.734375 -1.421875 13.25 4.234375 
Q 6.78125 9.90625 6.78125 20.515625 
Q 6.78125 27.484375 10.78125 32.3125 
Q 14.796875 37.15625 21.921875 38.8125 
z
M 18.3125 54.390625 
Q 18.3125 48.734375 21.84375 45.5625 
Q 25.390625 42.390625 31.78125 42.390625 
Q 38.140625 42.390625 41.71875 45.5625 
Q 45.3125 48.734375 45.3125 54.390625 
Q 45.3125 60.0625 41.71875 63.234375 
Q 38.140625 66.40625 31.78125 66.40625 
Q 25.390625 66.40625 21.84375 63.234375 
Q 18.3125 60.0625 18.3125 54.390625 
z
" id="DejaVuSans-38"/>
      </defs>
      <g transform="translate(245.465463 322.182437)scale(0.1 -0.1)">
       <use xlink:href="#DejaVuSans-38"/>
      </g>
     </g>
    </g>
    <g id="xtick_5">
     <g id="line2d_9">
      <path clip-path="url(#p6276a12da7)" d="M 298.593566 307.584 
L 298.593566 41.472 
" style="fill:none;stroke:#b0b0b0;stroke-linecap:square;stroke-width:0.8;"/>
     </g>
     <g id="line2d_10">
      <g>
       <use style="stroke:#000000;stroke-width:0.8;" x="298.593566" xlink:href="#md4d64f11e9" y="307.584"/>
      </g>
     </g>
     <g id="text_5">
      <!-- 10 -->
      <defs>
       <path d="M 12.40625 8.296875 
L 28.515625 8.296875 
L 28.515625 63.921875 
L 10.984375 60.40625 
L 10.984375 69.390625 
L 28.421875 72.90625 
L 38.28125 72.90625 
L 38.28125 8.296875 
L 54.390625 8.296875 
L 54.390625 0 
L 12.40625 0 
z
" id="DejaVuSans-31"/>
       <path d="M 31.78125 66.40625 
Q 24.171875 66.40625 20.328125 58.90625 
Q 16.5 51.421875 16.5 36.375 
Q 16.5 21.390625 20.328125 13.890625 
Q 24.171875 6.390625 31.78125 6.390625 
Q 39.453125 6.390625 43.28125 13.890625 
Q 47.125 21.390625 47.125 36.375 
Q 47.125 51.421875 43.28125 58.90625 
Q 39.453125 66.40625 31.78125 66.40625 
z
M 31.78125 74.21875 
Q 44.046875 74.21875 50.515625 64.515625 
Q 56.984375 54.828125 56.984375 36.375 
Q 56.984375 17.96875 50.515625 8.265625 
Q 44.046875 -1.421875 31.78125 -1.421875 
Q 19.53125 -1.421875 13.0625 8.265625 
Q 6.59375 17.96875 6.59375 36.375 
Q 6.59375 54.828125 13.0625 64.515625 
Q 19.53125 74.21875 31.78125 74.21875 
z
" id="DejaVuSans-30"/>
      </defs>
      <g transform="translate(292.231066 322.182437)scale(0.1 -0.1)">
       <use xlink:href="#DejaVuSans-31"/>
       <use x="63.623047" xlink:href="#DejaVuSans-30"/>
      </g>
     </g>
    </g>
    <g id="xtick_6">
     <g id="line2d_11">
      <path clip-path="url(#p6276a12da7)" d="M 348.54042 307.584 
L 348.54042 41.472 
" style="fill:none;stroke:#b0b0b0;stroke-linecap:square;stroke-width:0.8;"/>
     </g>
     <g id="line2d_12">
      <g>
       <use style="stroke:#000000;stroke-width:0.8;" x="348.54042" xlink:href="#md4d64f11e9" y="307.584"/>
      </g>
     </g>
     <g id="text_6">
      <!-- 12 -->
      <g transform="translate(342.17792 322.182437)scale(0.1 -0.1)">
       <use xlink:href="#DejaVuSans-31"/>
       <use x="63.623047" xlink:href="#DejaVuSans-32"/>
      </g>
     </g>
    </g>
    <g id="xtick_7">
     <g id="line2d_13">
      <path clip-path="url(#p6276a12da7)" d="M 398.487273 307.584 
L 398.487273 41.472 
" style="fill:none;stroke:#b0b0b0;stroke-linecap:square;stroke-width:0.8;"/>
     </g>
     <g id="line2d_14">
      <g>
       <use style="stroke:#000000;stroke-width:0.8;" x="398.487273" xlink:href="#md4d64f11e9" y="307.584"/>
      </g>
     </g>
     <g id="text_7">
      <!-- 14 -->
      <g transform="translate(392.124773 322.182437)scale(0.1 -0.1)">
       <use xlink:href="#DejaVuSans-31"/>
       <use x="63.623047" xlink:href="#DejaVuSans-34"/>
      </g>
     </g>
    </g>
    <g id="text_8">
     <!-- Size of predicted portfolio -->
     <defs>
      <path d="M 53.515625 70.515625 
L 53.515625 60.890625 
Q 47.90625 63.578125 42.921875 64.890625 
Q 37.9375 66.21875 33.296875 66.21875 
Q 25.25 66.21875 20.875 63.09375 
Q 16.5 59.96875 16.5 54.203125 
Q 16.5 49.359375 19.40625 46.890625 
Q 22.3125 44.4375 30.421875 42.921875 
L 36.375 41.703125 
Q 47.40625 39.59375 52.65625 34.296875 
Q 57.90625 29 57.90625 20.125 
Q 57.90625 9.515625 50.796875 4.046875 
Q 43.703125 -1.421875 29.984375 -1.421875 
Q 24.8125 -1.421875 18.96875 -0.25 
Q 13.140625 0.921875 6.890625 3.21875 
L 6.890625 13.375 
Q 12.890625 10.015625 18.65625 8.296875 
Q 24.421875 6.59375 29.984375 6.59375 
Q 38.421875 6.59375 43.015625 9.90625 
Q 47.609375 13.234375 47.609375 19.390625 
Q 47.609375 24.75 44.3125 27.78125 
Q 41.015625 30.8125 33.5 32.328125 
L 27.484375 33.5 
Q 16.453125 35.6875 11.515625 40.375 
Q 6.59375 45.0625 6.59375 53.421875 
Q 6.59375 63.09375 13.40625 68.65625 
Q 20.21875 74.21875 32.171875 74.21875 
Q 37.3125 74.21875 42.625 73.28125 
Q 47.953125 72.359375 53.515625 70.515625 
z
" id="DejaVuSans-53"/>
      <path d="M 9.421875 54.6875 
L 18.40625 54.6875 
L 18.40625 0 
L 9.421875 0 
z
M 9.421875 75.984375 
L 18.40625 75.984375 
L 18.40625 64.59375 
L 9.421875 64.59375 
z
" id="DejaVuSans-69"/>
      <path d="M 5.515625 54.6875 
L 48.1875 54.6875 
L 48.1875 46.484375 
L 14.40625 7.171875 
L 48.1875 7.171875 
L 48.1875 0 
L 4.296875 0 
L 4.296875 8.203125 
L 38.09375 47.515625 
L 5.515625 47.515625 
z
" id="DejaVuSans-7a"/>
      <path d="M 56.203125 29.59375 
L 56.203125 25.203125 
L 14.890625 25.203125 
Q 15.484375 15.921875 20.484375 11.0625 
Q 25.484375 6.203125 34.421875 6.203125 
Q 39.59375 6.203125 44.453125 7.46875 
Q 49.3125 8.734375 54.109375 11.28125 
L 54.109375 2.78125 
Q 49.265625 0.734375 44.1875 -0.34375 
Q 39.109375 -1.421875 33.890625 -1.421875 
Q 20.796875 -1.421875 13.15625 6.1875 
Q 5.515625 13.8125 5.515625 26.8125 
Q 5.515625 40.234375 12.765625 48.109375 
Q 20.015625 56 32.328125 56 
Q 43.359375 56 49.78125 48.890625 
Q 56.203125 41.796875 56.203125 29.59375 
z
M 47.21875 32.234375 
Q 47.125 39.59375 43.09375 43.984375 
Q 39.0625 48.390625 32.421875 48.390625 
Q 24.90625 48.390625 20.390625 44.140625 
Q 15.875 39.890625 15.1875 32.171875 
z
" id="DejaVuSans-65"/>
      <path id="DejaVuSans-20"/>
      <path d="M 30.609375 48.390625 
Q 23.390625 48.390625 19.1875 42.75 
Q 14.984375 37.109375 14.984375 27.296875 
Q 14.984375 17.484375 19.15625 11.84375 
Q 23.34375 6.203125 30.609375 6.203125 
Q 37.796875 6.203125 41.984375 11.859375 
Q 46.1875 17.53125 46.1875 27.296875 
Q 46.1875 37.015625 41.984375 42.703125 
Q 37.796875 48.390625 30.609375 48.390625 
z
M 30.609375 56 
Q 42.328125 56 49.015625 48.375 
Q 55.71875 40.765625 55.71875 27.296875 
Q 55.71875 13.875 49.015625 6.21875 
Q 42.328125 -1.421875 30.609375 -1.421875 
Q 18.84375 -1.421875 12.171875 6.21875 
Q 5.515625 13.875 5.515625 27.296875 
Q 5.515625 40.765625 12.171875 48.375 
Q 18.84375 56 30.609375 56 
z
" id="DejaVuSans-6f"/>
      <path d="M 37.109375 75.984375 
L 37.109375 68.5 
L 28.515625 68.5 
Q 23.6875 68.5 21.796875 66.546875 
Q 19.921875 64.59375 19.921875 59.515625 
L 19.921875 54.6875 
L 34.71875 54.6875 
L 34.71875 47.703125 
L 19.921875 47.703125 
L 19.921875 0 
L 10.890625 0 
L 10.890625 47.703125 
L 2.296875 47.703125 
L 2.296875 54.6875 
L 10.890625 54.6875 
L 10.890625 58.5 
Q 10.890625 67.625 15.140625 71.796875 
Q 19.390625 75.984375 28.609375 75.984375 
z
" id="DejaVuSans-66"/>
      <path d="M 18.109375 8.203125 
L 18.109375 -20.796875 
L 9.078125 -20.796875 
L 9.078125 54.6875 
L 18.109375 54.6875 
L 18.109375 46.390625 
Q 20.953125 51.265625 25.265625 53.625 
Q 29.59375 56 35.59375 56 
Q 45.5625 56 51.78125 48.09375 
Q 58.015625 40.1875 58.015625 27.296875 
Q 58.015625 14.40625 51.78125 6.484375 
Q 45.5625 -1.421875 35.59375 -1.421875 
Q 29.59375 -1.421875 25.265625 0.953125 
Q 20.953125 3.328125 18.109375 8.203125 
z
M 48.6875 27.296875 
Q 48.6875 37.203125 44.609375 42.84375 
Q 40.53125 48.484375 33.40625 48.484375 
Q 26.265625 48.484375 22.1875 42.84375 
Q 18.109375 37.203125 18.109375 27.296875 
Q 18.109375 17.390625 22.1875 11.75 
Q 26.265625 6.109375 33.40625 6.109375 
Q 40.53125 6.109375 44.609375 11.75 
Q 48.6875 17.390625 48.6875 27.296875 
z
" id="DejaVuSans-70"/>
      <path d="M 41.109375 46.296875 
Q 39.59375 47.171875 37.8125 47.578125 
Q 36.03125 48 33.890625 48 
Q 26.265625 48 22.1875 43.046875 
Q 18.109375 38.09375 18.109375 28.8125 
L 18.109375 0 
L 9.078125 0 
L 9.078125 54.6875 
L 18.109375 54.6875 
L 18.109375 46.1875 
Q 20.953125 51.171875 25.484375 53.578125 
Q 30.03125 56 36.53125 56 
Q 37.453125 56 38.578125 55.875 
Q 39.703125 55.765625 41.0625 55.515625 
z
" id="DejaVuSans-72"/>
      <path d="M 45.40625 46.390625 
L 45.40625 75.984375 
L 54.390625 75.984375 
L 54.390625 0 
L 45.40625 0 
L 45.40625 8.203125 
Q 42.578125 3.328125 38.25 0.953125 
Q 33.9375 -1.421875 27.875 -1.421875 
Q 17.96875 -1.421875 11.734375 6.484375 
Q 5.515625 14.40625 5.515625 27.296875 
Q 5.515625 40.1875 11.734375 48.09375 
Q 17.96875 56 27.875 56 
Q 33.9375 56 38.25 53.625 
Q 42.578125 51.265625 45.40625 46.390625 
z
M 14.796875 27.296875 
Q 14.796875 17.390625 18.875 11.75 
Q 22.953125 6.109375 30.078125 6.109375 
Q 37.203125 6.109375 41.296875 11.75 
Q 45.40625 17.390625 45.40625 27.296875 
Q 45.40625 37.203125 41.296875 42.84375 
Q 37.203125 48.484375 30.078125 48.484375 
Q 22.953125 48.484375 18.875 42.84375 
Q 14.796875 37.203125 14.796875 27.296875 
z
" id="DejaVuSans-64"/>
      <path d="M 48.78125 52.59375 
L 48.78125 44.1875 
Q 44.96875 46.296875 41.140625 47.34375 
Q 37.3125 48.390625 33.40625 48.390625 
Q 24.65625 48.390625 19.8125 42.84375 
Q 14.984375 37.3125 14.984375 27.296875 
Q 14.984375 17.28125 19.8125 11.734375 
Q 24.65625 6.203125 33.40625 6.203125 
Q 37.3125 6.203125 41.140625 7.25 
Q 44.96875 8.296875 48.78125 10.40625 
L 48.78125 2.09375 
Q 45.015625 0.34375 40.984375 -0.53125 
Q 36.96875 -1.421875 32.421875 -1.421875 
Q 20.0625 -1.421875 12.78125 6.34375 
Q 5.515625 14.109375 5.515625 27.296875 
Q 5.515625 40.671875 12.859375 48.328125 
Q 20.21875 56 33.015625 56 
Q 37.15625 56 41.109375 55.140625 
Q 45.0625 54.296875 48.78125 52.59375 
z
" id="DejaVuSans-63"/>
      <path d="M 18.3125 70.21875 
L 18.3125 54.6875 
L 36.8125 54.6875 
L 36.8125 47.703125 
L 18.3125 47.703125 
L 18.3125 18.015625 
Q 18.3125 11.328125 20.140625 9.421875 
Q 21.96875 7.515625 27.59375 7.515625 
L 36.8125 7.515625 
L 36.8125 0 
L 27.59375 0 
Q 17.1875 0 13.234375 3.875 
Q 9.28125 7.765625 9.28125 18.015625 
L 9.28125 47.703125 
L 2.6875 47.703125 
L 2.6875 54.6875 
L 9.28125 54.6875 
L 9.28125 70.21875 
z
" id="DejaVuSans-74"/>
      <path d="M 9.421875 75.984375 
L 18.40625 75.984375 
L 18.40625 0 
L 9.421875 0 
z
" id="DejaVuSans-6c"/>
     </defs>
     <g transform="translate(171.574844 335.860562)scale(0.1 -0.1)">
      <use xlink:href="#DejaVuSans-53"/>
      <use x="63.476562" xlink:href="#DejaVuSans-69"/>
      <use x="91.259766" xlink:href="#DejaVuSans-7a"/>
      <use x="143.75" xlink:href="#DejaVuSans-65"/>
      <use x="205.273438" xlink:href="#DejaVuSans-20"/>
      <use x="237.060547" xlink:href="#DejaVuSans-6f"/>
      <use x="298.242188" xlink:href="#DejaVuSans-66"/>
      <use x="333.447266" xlink:href="#DejaVuSans-20"/>
      <use x="365.234375" xlink:href="#DejaVuSans-70"/>
      <use x="428.710938" xlink:href="#DejaVuSans-72"/>
      <use x="469.792969" xlink:href="#DejaVuSans-65"/>
      <use x="531.316406" xlink:href="#DejaVuSans-64"/>
      <use x="594.792969" xlink:href="#DejaVuSans-69"/>
      <use x="622.576172" xlink:href="#DejaVuSans-63"/>
      <use x="677.556641" xlink:href="#DejaVuSans-74"/>
      <use x="716.765625" xlink:href="#DejaVuSans-65"/>
      <use x="778.289062" xlink:href="#DejaVuSans-64"/>
      <use x="841.765625" xlink:href="#DejaVuSans-20"/>
      <use x="873.552734" xlink:href="#DejaVuSans-70"/>
      <use x="937.029297" xlink:href="#DejaVuSans-6f"/>
      <use x="998.210938" xlink:href="#DejaVuSans-72"/>
      <use x="1039.324219" xlink:href="#DejaVuSans-74"/>
      <use x="1078.533203" xlink:href="#DejaVuSans-66"/>
      <use x="1113.738281" xlink:href="#DejaVuSans-6f"/>
      <use x="1174.919922" xlink:href="#DejaVuSans-6c"/>
      <use x="1202.703125" xlink:href="#DejaVuSans-69"/>
      <use x="1230.486328" xlink:href="#DejaVuSans-6f"/>
     </g>
    </g>
   </g>
   <g id="matplotlib.axis_2">
    <g id="ytick_1">
     <g id="line2d_15">
      <path clip-path="url(#p6276a12da7)" d="M 57.6 295.488 
L 414.72 295.488 
" style="fill:none;stroke:#b0b0b0;stroke-linecap:square;stroke-width:0.8;"/>
     </g>
     <g id="line2d_16">
      <defs>
       <path d="M 0 0 
L -3.5 0 
" id="mb039ce2e73" style="stroke:#000000;stroke-width:0.8;"/>
      </defs>
      <g>
       <use style="stroke:#000000;stroke-width:0.8;" x="57.6" xlink:href="#mb039ce2e73" y="295.488"/>
      </g>
     </g>
     <g id="text_9">
      <!-- 1.00 -->
      <defs>
       <path d="M 10.6875 12.40625 
L 21 12.40625 
L 21 0 
L 10.6875 0 
z
" id="DejaVuSans-2e"/>
      </defs>
      <g transform="translate(28.334375 299.287219)scale(0.1 -0.1)">
       <use xlink:href="#DejaVuSans-31"/>
       <use x="63.623047" xlink:href="#DejaVuSans-2e"/>
       <use x="95.410156" xlink:href="#DejaVuSans-30"/>
       <use x="159.033203" xlink:href="#DejaVuSans-30"/>
      </g>
     </g>
    </g>
    <g id="ytick_2">
     <g id="line2d_17">
      <path clip-path="url(#p6276a12da7)" d="M 57.6 259.968016 
L 414.72 259.968016 
" style="fill:none;stroke:#b0b0b0;stroke-linecap:square;stroke-width:0.8;"/>
     </g>
     <g id="line2d_18">
      <g>
       <use style="stroke:#000000;stroke-width:0.8;" x="57.6" xlink:href="#mb039ce2e73" y="259.968016"/>
      </g>
     </g>
     <g id="text_10">
      <!-- 1.05 -->
      <defs>
       <path d="M 10.796875 72.90625 
L 49.515625 72.90625 
L 49.515625 64.59375 
L 19.828125 64.59375 
L 19.828125 46.734375 
Q 21.96875 47.46875 24.109375 47.828125 
Q 26.265625 48.1875 28.421875 48.1875 
Q 40.625 48.1875 47.75 41.5 
Q 54.890625 34.8125 54.890625 23.390625 
Q 54.890625 11.625 47.5625 5.09375 
Q 40.234375 -1.421875 26.90625 -1.421875 
Q 22.3125 -1.421875 17.546875 -0.640625 
Q 12.796875 0.140625 7.71875 1.703125 
L 7.71875 11.625 
Q 12.109375 9.234375 16.796875 8.0625 
Q 21.484375 6.890625 26.703125 6.890625 
Q 35.15625 6.890625 40.078125 11.328125 
Q 45.015625 15.765625 45.015625 23.390625 
Q 45.015625 31 40.078125 35.4375 
Q 35.15625 39.890625 26.703125 39.890625 
Q 22.75 39.890625 18.8125 39.015625 
Q 14.890625 38.140625 10.796875 36.28125 
z
" id="DejaVuSans-35"/>
      </defs>
      <g transform="translate(28.334375 263.767234)scale(0.1 -0.1)">
       <use xlink:href="#DejaVuSans-31"/>
       <use x="63.623047" xlink:href="#DejaVuSans-2e"/>
       <use x="95.410156" xlink:href="#DejaVuSans-30"/>
       <use x="159.033203" xlink:href="#DejaVuSans-35"/>
      </g>
     </g>
    </g>
    <g id="ytick_3">
     <g id="line2d_19">
      <path clip-path="url(#p6276a12da7)" d="M 57.6 224.448031 
L 414.72 224.448031 
" style="fill:none;stroke:#b0b0b0;stroke-linecap:square;stroke-width:0.8;"/>
     </g>
     <g id="line2d_20">
      <g>
       <use style="stroke:#000000;stroke-width:0.8;" x="57.6" xlink:href="#mb039ce2e73" y="224.448031"/>
      </g>
     </g>
     <g id="text_11">
      <!-- 1.10 -->
      <g transform="translate(28.334375 228.24725)scale(0.1 -0.1)">
       <use xlink:href="#DejaVuSans-31"/>
       <use x="63.623047" xlink:href="#DejaVuSans-2e"/>
       <use x="95.410156" xlink:href="#DejaVuSans-31"/>
       <use x="159.033203" xlink:href="#DejaVuSans-30"/>
      </g>
     </g>
    </g>
    <g id="ytick_4">
     <g id="line2d_21">
      <path clip-path="url(#p6276a12da7)" d="M 57.6 188.928047 
L 414.72 188.928047 
" style="fill:none;stroke:#b0b0b0;stroke-linecap:square;stroke-width:0.8;"/>
     </g>
     <g id="line2d_22">
      <g>
       <use style="stroke:#000000;stroke-width:0.8;" x="57.6" xlink:href="#mb039ce2e73" y="188.928047"/>
      </g>
     </g>
     <g id="text_12">
      <!-- 1.15 -->
      <g transform="translate(28.334375 192.727266)scale(0.1 -0.1)">
       <use xlink:href="#DejaVuSans-31"/>
       <use x="63.623047" xlink:href="#DejaVuSans-2e"/>
       <use x="95.410156" xlink:href="#DejaVuSans-31"/>
       <use x="159.033203" xlink:href="#DejaVuSans-35"/>
      </g>
     </g>
    </g>
    <g id="ytick_5">
     <g id="line2d_23">
      <path clip-path="url(#p6276a12da7)" d="M 57.6 153.408063 
L 414.72 153.408063 
" style="fill:none;stroke:#b0b0b0;stroke-linecap:square;stroke-width:0.8;"/>
     </g>
     <g id="line2d_24">
      <g>
       <use style="stroke:#000000;stroke-width:0.8;" x="57.6" xlink:href="#mb039ce2e73" y="153.408063"/>
      </g>
     </g>
     <g id="text_13">
      <!-- 1.20 -->
      <g transform="translate(28.334375 157.207281)scale(0.1 -0.1)">
       <use xlink:href="#DejaVuSans-31"/>
       <use x="63.623047" xlink:href="#DejaVuSans-2e"/>
       <use x="95.410156" xlink:href="#DejaVuSans-32"/>
       <use x="159.033203" xlink:href="#DejaVuSans-30"/>
      </g>
     </g>
    </g>
    <g id="ytick_6">
     <g id="line2d_25">
      <path clip-path="url(#p6276a12da7)" d="M 57.6 117.888078 
L 414.72 117.888078 
" style="fill:none;stroke:#b0b0b0;stroke-linecap:square;stroke-width:0.8;"/>
     </g>
     <g id="line2d_26">
      <g>
       <use style="stroke:#000000;stroke-width:0.8;" x="57.6" xlink:href="#mb039ce2e73" y="117.888078"/>
      </g>
     </g>
     <g id="text_14">
      <!-- 1.25 -->
      <g transform="translate(28.334375 121.687297)scale(0.1 -0.1)">
       <use xlink:href="#DejaVuSans-31"/>
       <use x="63.623047" xlink:href="#DejaVuSans-2e"/>
       <use x="95.410156" xlink:href="#DejaVuSans-32"/>
       <use x="159.033203" xlink:href="#DejaVuSans-35"/>
      </g>
     </g>
    </g>
    <g id="ytick_7">
     <g id="line2d_27">
      <path clip-path="url(#p6276a12da7)" d="M 57.6 82.368094 
L 414.72 82.368094 
" style="fill:none;stroke:#b0b0b0;stroke-linecap:square;stroke-width:0.8;"/>
     </g>
     <g id="line2d_28">
      <g>
       <use style="stroke:#000000;stroke-width:0.8;" x="57.6" xlink:href="#mb039ce2e73" y="82.368094"/>
      </g>
     </g>
     <g id="text_15">
      <!-- 1.30 -->
      <defs>
       <path d="M 40.578125 39.3125 
Q 47.65625 37.796875 51.625 33 
Q 55.609375 28.21875 55.609375 21.1875 
Q 55.609375 10.40625 48.1875 4.484375 
Q 40.765625 -1.421875 27.09375 -1.421875 
Q 22.515625 -1.421875 17.65625 -0.515625 
Q 12.796875 0.390625 7.625 2.203125 
L 7.625 11.71875 
Q 11.71875 9.328125 16.59375 8.109375 
Q 21.484375 6.890625 26.8125 6.890625 
Q 36.078125 6.890625 40.9375 10.546875 
Q 45.796875 14.203125 45.796875 21.1875 
Q 45.796875 27.640625 41.28125 31.265625 
Q 36.765625 34.90625 28.71875 34.90625 
L 20.21875 34.90625 
L 20.21875 43.015625 
L 29.109375 43.015625 
Q 36.375 43.015625 40.234375 45.921875 
Q 44.09375 48.828125 44.09375 54.296875 
Q 44.09375 59.90625 40.109375 62.90625 
Q 36.140625 65.921875 28.71875 65.921875 
Q 24.65625 65.921875 20.015625 65.03125 
Q 15.375 64.15625 9.8125 62.3125 
L 9.8125 71.09375 
Q 15.4375 72.65625 20.34375 73.4375 
Q 25.25 74.21875 29.59375 74.21875 
Q 40.828125 74.21875 47.359375 69.109375 
Q 53.90625 64.015625 53.90625 55.328125 
Q 53.90625 49.265625 50.4375 45.09375 
Q 46.96875 40.921875 40.578125 39.3125 
z
" id="DejaVuSans-33"/>
      </defs>
      <g transform="translate(28.334375 86.167313)scale(0.1 -0.1)">
       <use xlink:href="#DejaVuSans-31"/>
       <use x="63.623047" xlink:href="#DejaVuSans-2e"/>
       <use x="95.410156" xlink:href="#DejaVuSans-33"/>
       <use x="159.033203" xlink:href="#DejaVuSans-30"/>
      </g>
     </g>
    </g>
    <g id="ytick_8">
     <g id="line2d_29">
      <path clip-path="url(#p6276a12da7)" d="M 57.6 46.84811 
L 414.72 46.84811 
" style="fill:none;stroke:#b0b0b0;stroke-linecap:square;stroke-width:0.8;"/>
     </g>
     <g id="line2d_30">
      <g>
       <use style="stroke:#000000;stroke-width:0.8;" x="57.6" xlink:href="#mb039ce2e73" y="46.84811"/>
      </g>
     </g>
     <g id="text_16">
      <!-- 1.35 -->
      <g transform="translate(28.334375 50.647328)scale(0.1 -0.1)">
       <use xlink:href="#DejaVuSans-31"/>
       <use x="63.623047" xlink:href="#DejaVuSans-2e"/>
       <use x="95.410156" xlink:href="#DejaVuSans-33"/>
       <use x="159.033203" xlink:href="#DejaVuSans-35"/>
      </g>
     </g>
    </g>
    <g id="text_17">
     <!-- SGM ratio -->
     <defs>
      <path d="M 59.515625 10.40625 
L 59.515625 29.984375 
L 43.40625 29.984375 
L 43.40625 38.09375 
L 69.28125 38.09375 
L 69.28125 6.78125 
Q 63.578125 2.734375 56.6875 0.65625 
Q 49.8125 -1.421875 42 -1.421875 
Q 24.90625 -1.421875 15.25 8.5625 
Q 5.609375 18.5625 5.609375 36.375 
Q 5.609375 54.25 15.25 64.234375 
Q 24.90625 74.21875 42 74.21875 
Q 49.125 74.21875 55.546875 72.453125 
Q 61.96875 70.703125 67.390625 67.28125 
L 67.390625 56.78125 
Q 61.921875 61.421875 55.765625 63.765625 
Q 49.609375 66.109375 42.828125 66.109375 
Q 29.4375 66.109375 22.71875 58.640625 
Q 16.015625 51.171875 16.015625 36.375 
Q 16.015625 21.625 22.71875 14.15625 
Q 29.4375 6.6875 42.828125 6.6875 
Q 48.046875 6.6875 52.140625 7.59375 
Q 56.25 8.5 59.515625 10.40625 
z
" id="DejaVuSans-47"/>
      <path d="M 9.8125 72.90625 
L 24.515625 72.90625 
L 43.109375 23.296875 
L 61.8125 72.90625 
L 76.515625 72.90625 
L 76.515625 0 
L 66.890625 0 
L 66.890625 64.015625 
L 48.09375 14.015625 
L 38.1875 14.015625 
L 19.390625 64.015625 
L 19.390625 0 
L 9.8125 0 
z
" id="DejaVuSans-4d"/>
      <path d="M 34.28125 27.484375 
Q 23.390625 27.484375 19.1875 25 
Q 14.984375 22.515625 14.984375 16.5 
Q 14.984375 11.71875 18.140625 8.90625 
Q 21.296875 6.109375 26.703125 6.109375 
Q 34.1875 6.109375 38.703125 11.40625 
Q 43.21875 16.703125 43.21875 25.484375 
L 43.21875 27.484375 
z
M 52.203125 31.203125 
L 52.203125 0 
L 43.21875 0 
L 43.21875 8.296875 
Q 40.140625 3.328125 35.546875 0.953125 
Q 30.953125 -1.421875 24.3125 -1.421875 
Q 15.921875 -1.421875 10.953125 3.296875 
Q 6 8.015625 6 15.921875 
Q 6 25.140625 12.171875 29.828125 
Q 18.359375 34.515625 30.609375 34.515625 
L 43.21875 34.515625 
L 43.21875 35.40625 
Q 43.21875 41.609375 39.140625 45 
Q 35.0625 48.390625 27.6875 48.390625 
Q 23 48.390625 18.546875 47.265625 
Q 14.109375 46.140625 10.015625 43.890625 
L 10.015625 52.203125 
Q 14.9375 54.109375 19.578125 55.046875 
Q 24.21875 56 28.609375 56 
Q 40.484375 56 46.34375 49.84375 
Q 52.203125 43.703125 52.203125 31.203125 
z
" id="DejaVuSans-61"/>
     </defs>
     <g transform="translate(22.254687 199.007688)rotate(-90)scale(0.1 -0.1)">
      <use xlink:href="#DejaVuSans-53"/>
      <use x="63.476562" xlink:href="#DejaVuSans-47"/>
      <use x="140.966797" xlink:href="#DejaVuSans-4d"/>
      <use x="227.246094" xlink:href="#DejaVuSans-20"/>
      <use x="259.033203" xlink:href="#DejaVuSans-72"/>
      <use x="300.146484" xlink:href="#DejaVuSans-61"/>
      <use x="361.425781" xlink:href="#DejaVuSans-74"/>
      <use x="400.634766" xlink:href="#DejaVuSans-69"/>
      <use x="428.417969" xlink:href="#DejaVuSans-6f"/>
     </g>
    </g>
   </g>
   <g id="line2d_31">
    <path clip-path="url(#p6276a12da7)" d="M 73.832727 90.737467 
L 98.806154 152.570668 
L 123.77958 169.0912 
L 148.753007 193.634304 
L 173.726434 226.6269 
L 198.69986 243.686219 
L 223.673287 245.440711 
L 248.646713 263.647729 
L 273.62014 274.374516 
L 298.593566 275.789442 
L 323.566993 291.728631 
L 348.54042 291.883241 
L 373.513846 291.884763 
L 398.487273 295.488 
" style="fill:none;stroke:#1f77b4;stroke-linecap:square;stroke-width:1.5;"/>
    <defs>
     <path d="M 0 3 
C 0.795609 3 1.55874 2.683901 2.12132 2.12132 
C 2.683901 1.55874 3 0.795609 3 0 
C 3 -0.795609 2.683901 -1.55874 2.12132 -2.12132 
C 1.55874 -2.683901 0.795609 -3 0 -3 
C -0.795609 -3 -1.55874 -2.683901 -2.12132 -2.12132 
C -2.683901 -1.55874 -3 -0.795609 -3 0 
C -3 0.795609 -2.683901 1.55874 -2.12132 2.12132 
C -1.55874 2.683901 -0.795609 3 0 3 
z
" id="m3a81f6e421" style="stroke:#1f77b4;"/>
    </defs>
    <g clip-path="url(#p6276a12da7)">
     <use style="fill:#1f77b4;stroke:#1f77b4;" x="73.832727" xlink:href="#m3a81f6e421" y="90.737467"/>
     <use style="fill:#1f77b4;stroke:#1f77b4;" x="98.806154" xlink:href="#m3a81f6e421" y="152.570668"/>
     <use style="fill:#1f77b4;stroke:#1f77b4;" x="123.77958" xlink:href="#m3a81f6e421" y="169.0912"/>
     <use style="fill:#1f77b4;stroke:#1f77b4;" x="148.753007" xlink:href="#m3a81f6e421" y="193.634304"/>
     <use style="fill:#1f77b4;stroke:#1f77b4;" x="173.726434" xlink:href="#m3a81f6e421" y="226.6269"/>
     <use style="fill:#1f77b4;stroke:#1f77b4;" x="198.69986" xlink:href="#m3a81f6e421" y="243.686219"/>
     <use style="fill:#1f77b4;stroke:#1f77b4;" x="223.673287" xlink:href="#m3a81f6e421" y="245.440711"/>
     <use style="fill:#1f77b4;stroke:#1f77b4;" x="248.646713" xlink:href="#m3a81f6e421" y="263.647729"/>
     <use style="fill:#1f77b4;stroke:#1f77b4;" x="273.62014" xlink:href="#m3a81f6e421" y="274.374516"/>
     <use style="fill:#1f77b4;stroke:#1f77b4;" x="298.593566" xlink:href="#m3a81f6e421" y="275.789442"/>
     <use style="fill:#1f77b4;stroke:#1f77b4;" x="323.566993" xlink:href="#m3a81f6e421" y="291.728631"/>
     <use style="fill:#1f77b4;stroke:#1f77b4;" x="348.54042" xlink:href="#m3a81f6e421" y="291.883241"/>
     <use style="fill:#1f77b4;stroke:#1f77b4;" x="373.513846" xlink:href="#m3a81f6e421" y="291.884763"/>
     <use style="fill:#1f77b4;stroke:#1f77b4;" x="398.487273" xlink:href="#m3a81f6e421" y="295.488"/>
    </g>
   </g>
   <g id="line2d_32">
    <path clip-path="url(#p6276a12da7)" d="M 73.832727 115.751364 
L 98.806154 193.058669 
L 123.77958 222.257604 
L 148.753007 239.143024 
L 173.726434 250.617034 
L 198.69986 261.796227 
L 223.673287 267.750281 
L 248.646713 274.225021 
L 273.62014 280.308985 
L 298.593566 284.885748 
L 323.566993 288.320127 
L 348.54042 291.652274 
L 373.513846 294.617784 
L 398.487273 295.488 
" style="fill:none;stroke:#ff7f0e;stroke-linecap:square;stroke-width:1.5;"/>
    <defs>
     <path d="M 0 3 
C 0.795609 3 1.55874 2.683901 2.12132 2.12132 
C 2.683901 1.55874 3 0.795609 3 0 
C 3 -0.795609 2.683901 -1.55874 2.12132 -2.12132 
C 1.55874 -2.683901 0.795609 -3 0 -3 
C -0.795609 -3 -1.55874 -2.683901 -2.12132 -2.12132 
C -2.683901 -1.55874 -3 -0.795609 -3 0 
C -3 0.795609 -2.683901 1.55874 -2.12132 2.12132 
C -1.55874 2.683901 -0.795609 3 0 3 
z
" id="m02b8ea300e" style="stroke:#ff7f0e;"/>
    </defs>
    <g clip-path="url(#p6276a12da7)">
     <use style="fill:#ff7f0e;stroke:#ff7f0e;" x="73.832727" xlink:href="#m02b8ea300e" y="115.751364"/>
     <use style="fill:#ff7f0e;stroke:#ff7f0e;" x="98.806154" xlink:href="#m02b8ea300e" y="193.058669"/>
     <use style="fill:#ff7f0e;stroke:#ff7f0e;" x="123.77958" xlink:href="#m02b8ea300e" y="222.257604"/>
     <use style="fill:#ff7f0e;stroke:#ff7f0e;" x="148.753007" xlink:href="#m02b8ea300e" y="239.143024"/>
     <use style="fill:#ff7f0e;stroke:#ff7f0e;" x="173.726434" xlink:href="#m02b8ea300e" y="250.617034"/>
     <use style="fill:#ff7f0e;stroke:#ff7f0e;" x="198.69986" xlink:href="#m02b8ea300e" y="261.796227"/>
     <use style="fill:#ff7f0e;stroke:#ff7f0e;" x="223.673287" xlink:href="#m02b8ea300e" y="267.750281"/>
     <use style="fill:#ff7f0e;stroke:#ff7f0e;" x="248.646713" xlink:href="#m02b8ea300e" y="274.225021"/>
     <use style="fill:#ff7f0e;stroke:#ff7f0e;" x="273.62014" xlink:href="#m02b8ea300e" y="280.308985"/>
     <use style="fill:#ff7f0e;stroke:#ff7f0e;" x="298.593566" xlink:href="#m02b8ea300e" y="284.885748"/>
     <use style="fill:#ff7f0e;stroke:#ff7f0e;" x="323.566993" xlink:href="#m02b8ea300e" y="288.320127"/>
     <use style="fill:#ff7f0e;stroke:#ff7f0e;" x="348.54042" xlink:href="#m02b8ea300e" y="291.652274"/>
     <use style="fill:#ff7f0e;stroke:#ff7f0e;" x="373.513846" xlink:href="#m02b8ea300e" y="294.617784"/>
     <use style="fill:#ff7f0e;stroke:#ff7f0e;" x="398.487273" xlink:href="#m02b8ea300e" y="295.488"/>
    </g>
   </g>
   <g id="line2d_33">
    <path clip-path="url(#p6276a12da7)" d="M 73.832727 92.178895 
L 98.806154 171.548119 
L 123.77958 210.345258 
L 148.753007 227.756728 
L 173.726434 239.126935 
L 198.69986 248.85817 
L 223.673287 261.759332 
L 248.646713 273.135491 
L 273.62014 280.01577 
L 298.593566 284.950712 
L 323.566993 290.650799 
L 348.54042 293.591365 
L 373.513846 295.157459 
L 398.487273 295.488 
" style="fill:none;stroke:#2ca02c;stroke-linecap:square;stroke-width:1.5;"/>
    <defs>
     <path d="M 0 3 
C 0.795609 3 1.55874 2.683901 2.12132 2.12132 
C 2.683901 1.55874 3 0.795609 3 0 
C 3 -0.795609 2.683901 -1.55874 2.12132 -2.12132 
C 1.55874 -2.683901 0.795609 -3 0 -3 
C -0.795609 -3 -1.55874 -2.683901 -2.12132 -2.12132 
C -2.683901 -1.55874 -3 -0.795609 -3 0 
C -3 0.795609 -2.683901 1.55874 -2.12132 2.12132 
C -1.55874 2.683901 -0.795609 3 0 3 
z
" id="m396c3c033a" style="stroke:#2ca02c;"/>
    </defs>
    <g clip-path="url(#p6276a12da7)">
     <use style="fill:#2ca02c;stroke:#2ca02c;" x="73.832727" xlink:href="#m396c3c033a" y="92.178895"/>
     <use style="fill:#2ca02c;stroke:#2ca02c;" x="98.806154" xlink:href="#m396c3c033a" y="171.548119"/>
     <use style="fill:#2ca02c;stroke:#2ca02c;" x="123.77958" xlink:href="#m396c3c033a" y="210.345258"/>
     <use style="fill:#2ca02c;stroke:#2ca02c;" x="148.753007" xlink:href="#m396c3c033a" y="227.756728"/>
     <use style="fill:#2ca02c;stroke:#2ca02c;" x="173.726434" xlink:href="#m396c3c033a" y="239.126935"/>
     <use style="fill:#2ca02c;stroke:#2ca02c;" x="198.69986" xlink:href="#m396c3c033a" y="248.85817"/>
     <use style="fill:#2ca02c;stroke:#2ca02c;" x="223.673287" xlink:href="#m396c3c033a" y="261.759332"/>
     <use style="fill:#2ca02c;stroke:#2ca02c;" x="248.646713" xlink:href="#m396c3c033a" y="273.135491"/>
     <use style="fill:#2ca02c;stroke:#2ca02c;" x="273.62014" xlink:href="#m396c3c033a" y="280.01577"/>
     <use style="fill:#2ca02c;stroke:#2ca02c;" x="298.593566" xlink:href="#m396c3c033a" y="284.950712"/>
     <use style="fill:#2ca02c;stroke:#2ca02c;" x="323.566993" xlink:href="#m396c3c033a" y="290.650799"/>
     <use style="fill:#2ca02c;stroke:#2ca02c;" x="348.54042" xlink:href="#m396c3c033a" y="293.591365"/>
     <use style="fill:#2ca02c;stroke:#2ca02c;" x="373.513846" xlink:href="#m396c3c033a" y="295.157459"/>
     <use style="fill:#2ca02c;stroke:#2ca02c;" x="398.487273" xlink:href="#m396c3c033a" y="295.488"/>
    </g>
   </g>
   <g id="line2d_34">
    <path clip-path="url(#p6276a12da7)" d="M 73.832727 103.139584 
L 98.806154 179.905953 
L 123.77958 213.175315 
L 148.753007 234.135987 
L 173.726434 247.664864 
L 198.69986 258.035132 
L 223.673287 266.190485 
L 248.646713 272.675116 
L 273.62014 278.027382 
L 298.593566 283.69175 
L 323.566993 286.996104 
L 348.54042 290.363114 
L 373.513846 293.676523 
L 398.487273 295.488 
" style="fill:none;stroke:#d62728;stroke-linecap:square;stroke-width:1.5;"/>
    <defs>
     <path d="M 0 3 
C 0.795609 3 1.55874 2.683901 2.12132 2.12132 
C 2.683901 1.55874 3 0.795609 3 0 
C 3 -0.795609 2.683901 -1.55874 2.12132 -2.12132 
C 1.55874 -2.683901 0.795609 -3 0 -3 
C -0.795609 -3 -1.55874 -2.683901 -2.12132 -2.12132 
C -2.683901 -1.55874 -3 -0.795609 -3 0 
C -3 0.795609 -2.683901 1.55874 -2.12132 2.12132 
C -1.55874 2.683901 -0.795609 3 0 3 
z
" id="mcdbda6e44f" style="stroke:#d62728;"/>
    </defs>
    <g clip-path="url(#p6276a12da7)">
     <use style="fill:#d62728;stroke:#d62728;" x="73.832727" xlink:href="#mcdbda6e44f" y="103.139584"/>
     <use style="fill:#d62728;stroke:#d62728;" x="98.806154" xlink:href="#mcdbda6e44f" y="179.905953"/>
     <use style="fill:#d62728;stroke:#d62728;" x="123.77958" xlink:href="#mcdbda6e44f" y="213.175315"/>
     <use style="fill:#d62728;stroke:#d62728;" x="148.753007" xlink:href="#mcdbda6e44f" y="234.135987"/>
     <use style="fill:#d62728;stroke:#d62728;" x="173.726434" xlink:href="#mcdbda6e44f" y="247.664864"/>
     <use style="fill:#d62728;stroke:#d62728;" x="198.69986" xlink:href="#mcdbda6e44f" y="258.035132"/>
     <use style="fill:#d62728;stroke:#d62728;" x="223.673287" xlink:href="#mcdbda6e44f" y="266.190485"/>
     <use style="fill:#d62728;stroke:#d62728;" x="248.646713" xlink:href="#mcdbda6e44f" y="272.675116"/>
     <use style="fill:#d62728;stroke:#d62728;" x="273.62014" xlink:href="#mcdbda6e44f" y="278.027382"/>
     <use style="fill:#d62728;stroke:#d62728;" x="298.593566" xlink:href="#mcdbda6e44f" y="283.69175"/>
     <use style="fill:#d62728;stroke:#d62728;" x="323.566993" xlink:href="#mcdbda6e44f" y="286.996104"/>
     <use style="fill:#d62728;stroke:#d62728;" x="348.54042" xlink:href="#mcdbda6e44f" y="290.363114"/>
     <use style="fill:#d62728;stroke:#d62728;" x="373.513846" xlink:href="#mcdbda6e44f" y="293.676523"/>
     <use style="fill:#d62728;stroke:#d62728;" x="398.487273" xlink:href="#mcdbda6e44f" y="295.488"/>
    </g>
   </g>
   <g id="line2d_35">
    <path clip-path="url(#p6276a12da7)" d="M 73.832727 55.781697 
L 98.806154 148.942078 
L 123.77958 185.846468 
L 148.753007 208.862175 
L 173.726434 228.077838 
L 198.69986 244.214156 
L 223.673287 255.031035 
L 248.646713 265.102372 
L 273.62014 272.702028 
L 298.593566 283.816206 
L 323.566993 289.242881 
L 348.54042 292.820656 
L 373.513846 294.335311 
L 398.487273 295.488 
" style="fill:none;stroke:#9467bd;stroke-linecap:square;stroke-width:1.5;"/>
    <defs>
     <path d="M 0 3 
C 0.795609 3 1.55874 2.683901 2.12132 2.12132 
C 2.683901 1.55874 3 0.795609 3 0 
C 3 -0.795609 2.683901 -1.55874 2.12132 -2.12132 
C 1.55874 -2.683901 0.795609 -3 0 -3 
C -0.795609 -3 -1.55874 -2.683901 -2.12132 -2.12132 
C -2.683901 -1.55874 -3 -0.795609 -3 0 
C -3 0.795609 -2.683901 1.55874 -2.12132 2.12132 
C -1.55874 2.683901 -0.795609 3 0 3 
z
" id="m7920e4e3e9" style="stroke:#9467bd;"/>
    </defs>
    <g clip-path="url(#p6276a12da7)">
     <use style="fill:#9467bd;stroke:#9467bd;" x="73.832727" xlink:href="#m7920e4e3e9" y="55.781697"/>
     <use style="fill:#9467bd;stroke:#9467bd;" x="98.806154" xlink:href="#m7920e4e3e9" y="148.942078"/>
     <use style="fill:#9467bd;stroke:#9467bd;" x="123.77958" xlink:href="#m7920e4e3e9" y="185.846468"/>
     <use style="fill:#9467bd;stroke:#9467bd;" x="148.753007" xlink:href="#m7920e4e3e9" y="208.862175"/>
     <use style="fill:#9467bd;stroke:#9467bd;" x="173.726434" xlink:href="#m7920e4e3e9" y="228.077838"/>
     <use style="fill:#9467bd;stroke:#9467bd;" x="198.69986" xlink:href="#m7920e4e3e9" y="244.214156"/>
     <use style="fill:#9467bd;stroke:#9467bd;" x="223.673287" xlink:href="#m7920e4e3e9" y="255.031035"/>
     <use style="fill:#9467bd;stroke:#9467bd;" x="248.646713" xlink:href="#m7920e4e3e9" y="265.102372"/>
     <use style="fill:#9467bd;stroke:#9467bd;" x="273.62014" xlink:href="#m7920e4e3e9" y="272.702028"/>
     <use style="fill:#9467bd;stroke:#9467bd;" x="298.593566" xlink:href="#m7920e4e3e9" y="283.816206"/>
     <use style="fill:#9467bd;stroke:#9467bd;" x="323.566993" xlink:href="#m7920e4e3e9" y="289.242881"/>
     <use style="fill:#9467bd;stroke:#9467bd;" x="348.54042" xlink:href="#m7920e4e3e9" y="292.820656"/>
     <use style="fill:#9467bd;stroke:#9467bd;" x="373.513846" xlink:href="#m7920e4e3e9" y="294.335311"/>
     <use style="fill:#9467bd;stroke:#9467bd;" x="398.487273" xlink:href="#m7920e4e3e9" y="295.488"/>
    </g>
   </g>
   <g id="line2d_36">
    <path clip-path="url(#p6276a12da7)" d="M 73.832727 75.572674 
L 98.806154 152.373616 
L 123.77958 183.932856 
L 148.753007 211.866461 
L 173.726434 233.877297 
L 198.69986 249.593787 
L 223.673287 263.060258 
L 248.646713 270.935276 
L 273.62014 280.818538 
L 298.593566 289.197088 
L 323.566993 292.430916 
L 348.54042 293.577184 
L 373.513846 294.878419 
L 398.487273 295.488 
" style="fill:none;stroke:#8c564b;stroke-linecap:square;stroke-width:1.5;"/>
    <defs>
     <path d="M 0 3 
C 0.795609 3 1.55874 2.683901 2.12132 2.12132 
C 2.683901 1.55874 3 0.795609 3 0 
C 3 -0.795609 2.683901 -1.55874 2.12132 -2.12132 
C 1.55874 -2.683901 0.795609 -3 0 -3 
C -0.795609 -3 -1.55874 -2.683901 -2.12132 -2.12132 
C -2.683901 -1.55874 -3 -0.795609 -3 0 
C -3 0.795609 -2.683901 1.55874 -2.12132 2.12132 
C -1.55874 2.683901 -0.795609 3 0 3 
z
" id="m5f27905e27" style="stroke:#8c564b;"/>
    </defs>
    <g clip-path="url(#p6276a12da7)">
     <use style="fill:#8c564b;stroke:#8c564b;" x="73.832727" xlink:href="#m5f27905e27" y="75.572674"/>
     <use style="fill:#8c564b;stroke:#8c564b;" x="98.806154" xlink:href="#m5f27905e27" y="152.373616"/>
     <use style="fill:#8c564b;stroke:#8c564b;" x="123.77958" xlink:href="#m5f27905e27" y="183.932856"/>
     <use style="fill:#8c564b;stroke:#8c564b;" x="148.753007" xlink:href="#m5f27905e27" y="211.866461"/>
     <use style="fill:#8c564b;stroke:#8c564b;" x="173.726434" xlink:href="#m5f27905e27" y="233.877297"/>
     <use style="fill:#8c564b;stroke:#8c564b;" x="198.69986" xlink:href="#m5f27905e27" y="249.593787"/>
     <use style="fill:#8c564b;stroke:#8c564b;" x="223.673287" xlink:href="#m5f27905e27" y="263.060258"/>
     <use style="fill:#8c564b;stroke:#8c564b;" x="248.646713" xlink:href="#m5f27905e27" y="270.935276"/>
     <use style="fill:#8c564b;stroke:#8c564b;" x="273.62014" xlink:href="#m5f27905e27" y="280.818538"/>
     <use style="fill:#8c564b;stroke:#8c564b;" x="298.593566" xlink:href="#m5f27905e27" y="289.197088"/>
     <use style="fill:#8c564b;stroke:#8c564b;" x="323.566993" xlink:href="#m5f27905e27" y="292.430916"/>
     <use style="fill:#8c564b;stroke:#8c564b;" x="348.54042" xlink:href="#m5f27905e27" y="293.577184"/>
     <use style="fill:#8c564b;stroke:#8c564b;" x="373.513846" xlink:href="#m5f27905e27" y="294.878419"/>
     <use style="fill:#8c564b;stroke:#8c564b;" x="398.487273" xlink:href="#m5f27905e27" y="295.488"/>
    </g>
   </g>
   <g id="line2d_37">
    <path clip-path="url(#p6276a12da7)" d="M 73.832727 53.568 
L 98.806154 153.144898 
L 123.77958 187.665043 
L 148.753007 209.372439 
L 173.726434 227.105417 
L 198.69986 243.004299 
L 223.673287 256.0836 
L 248.646713 266.02416 
L 273.62014 274.818975 
L 298.593566 284.792034 
L 323.566993 289.319507 
L 348.54042 293.137992 
L 373.513846 294.649353 
L 398.487273 295.488 
" style="fill:none;stroke:#e377c2;stroke-linecap:square;stroke-width:1.5;"/>
    <defs>
     <path d="M 0 3 
C 0.795609 3 1.55874 2.683901 2.12132 2.12132 
C 2.683901 1.55874 3 0.795609 3 0 
C 3 -0.795609 2.683901 -1.55874 2.12132 -2.12132 
C 1.55874 -2.683901 0.795609 -3 0 -3 
C -0.795609 -3 -1.55874 -2.683901 -2.12132 -2.12132 
C -2.683901 -1.55874 -3 -0.795609 -3 0 
C -3 0.795609 -2.683901 1.55874 -2.12132 2.12132 
C -1.55874 2.683901 -0.795609 3 0 3 
z
" id="md9f34f4dfa" style="stroke:#e377c2;"/>
    </defs>
    <g clip-path="url(#p6276a12da7)">
     <use style="fill:#e377c2;stroke:#e377c2;" x="73.832727" xlink:href="#md9f34f4dfa" y="53.568"/>
     <use style="fill:#e377c2;stroke:#e377c2;" x="98.806154" xlink:href="#md9f34f4dfa" y="153.144898"/>
     <use style="fill:#e377c2;stroke:#e377c2;" x="123.77958" xlink:href="#md9f34f4dfa" y="187.665043"/>
     <use style="fill:#e377c2;stroke:#e377c2;" x="148.753007" xlink:href="#md9f34f4dfa" y="209.372439"/>
     <use style="fill:#e377c2;stroke:#e377c2;" x="173.726434" xlink:href="#md9f34f4dfa" y="227.105417"/>
     <use style="fill:#e377c2;stroke:#e377c2;" x="198.69986" xlink:href="#md9f34f4dfa" y="243.004299"/>
     <use style="fill:#e377c2;stroke:#e377c2;" x="223.673287" xlink:href="#md9f34f4dfa" y="256.0836"/>
     <use style="fill:#e377c2;stroke:#e377c2;" x="248.646713" xlink:href="#md9f34f4dfa" y="266.02416"/>
     <use style="fill:#e377c2;stroke:#e377c2;" x="273.62014" xlink:href="#md9f34f4dfa" y="274.818975"/>
     <use style="fill:#e377c2;stroke:#e377c2;" x="298.593566" xlink:href="#md9f34f4dfa" y="284.792034"/>
     <use style="fill:#e377c2;stroke:#e377c2;" x="323.566993" xlink:href="#md9f34f4dfa" y="289.319507"/>
     <use style="fill:#e377c2;stroke:#e377c2;" x="348.54042" xlink:href="#md9f34f4dfa" y="293.137992"/>
     <use style="fill:#e377c2;stroke:#e377c2;" x="373.513846" xlink:href="#md9f34f4dfa" y="294.649353"/>
     <use style="fill:#e377c2;stroke:#e377c2;" x="398.487273" xlink:href="#md9f34f4dfa" y="295.488"/>
    </g>
   </g>
   <g id="patch_3">
    <path d="M 57.6 307.584 
L 57.6 41.472 
" style="fill:none;stroke:#000000;stroke-linecap:square;stroke-linejoin:miter;stroke-width:0.8;"/>
   </g>
   <g id="patch_4">
    <path d="M 414.72 307.584 
L 414.72 41.472 
" style="fill:none;stroke:#000000;stroke-linecap:square;stroke-linejoin:miter;stroke-width:0.8;"/>
   </g>
   <g id="patch_5">
    <path d="M 57.6 307.584 
L 414.72 307.584 
" style="fill:none;stroke:#000000;stroke-linecap:square;stroke-linejoin:miter;stroke-width:0.8;"/>
   </g>
   <g id="patch_6">
    <path d="M 57.6 41.472 
L 414.72 41.472 
" style="fill:none;stroke:#000000;stroke-linecap:square;stroke-linejoin:miter;stroke-width:0.8;"/>
   </g>
   <g id="text_18">
    <!-- Portfolio performance -->
    <defs>
     <path d="M 19.671875 64.796875 
L 19.671875 37.40625 
L 32.078125 37.40625 
Q 38.96875 37.40625 42.71875 40.96875 
Q 46.484375 44.53125 46.484375 51.125 
Q 46.484375 57.671875 42.71875 61.234375 
Q 38.96875 64.796875 32.078125 64.796875 
z
M 9.8125 72.90625 
L 32.078125 72.90625 
Q 44.34375 72.90625 50.609375 67.359375 
Q 56.890625 61.8125 56.890625 51.125 
Q 56.890625 40.328125 50.609375 34.8125 
Q 44.34375 29.296875 32.078125 29.296875 
L 19.671875 29.296875 
L 19.671875 0 
L 9.8125 0 
z
" id="DejaVuSans-50"/>
     <path d="M 52 44.1875 
Q 55.375 50.25 60.0625 53.125 
Q 64.75 56 71.09375 56 
Q 79.640625 56 84.28125 50.015625 
Q 88.921875 44.046875 88.921875 33.015625 
L 88.921875 0 
L 79.890625 0 
L 79.890625 32.71875 
Q 79.890625 40.578125 77.09375 44.375 
Q 74.3125 48.1875 68.609375 48.1875 
Q 61.625 48.1875 57.5625 43.546875 
Q 53.515625 38.921875 53.515625 30.90625 
L 53.515625 0 
L 44.484375 0 
L 44.484375 32.71875 
Q 44.484375 40.625 41.703125 44.40625 
Q 38.921875 48.1875 33.109375 48.1875 
Q 26.21875 48.1875 22.15625 43.53125 
Q 18.109375 38.875 18.109375 30.90625 
L 18.109375 0 
L 9.078125 0 
L 9.078125 54.6875 
L 18.109375 54.6875 
L 18.109375 46.1875 
Q 21.1875 51.21875 25.484375 53.609375 
Q 29.78125 56 35.6875 56 
Q 41.65625 56 45.828125 52.96875 
Q 50 49.953125 52 44.1875 
z
" id="DejaVuSans-6d"/>
     <path d="M 54.890625 33.015625 
L 54.890625 0 
L 45.90625 0 
L 45.90625 32.71875 
Q 45.90625 40.484375 42.875 44.328125 
Q 39.84375 48.1875 33.796875 48.1875 
Q 26.515625 48.1875 22.3125 43.546875 
Q 18.109375 38.921875 18.109375 30.90625 
L 18.109375 0 
L 9.078125 0 
L 9.078125 54.6875 
L 18.109375 54.6875 
L 18.109375 46.1875 
Q 21.34375 51.125 25.703125 53.5625 
Q 30.078125 56 35.796875 56 
Q 45.21875 56 50.046875 50.171875 
Q 54.890625 44.34375 54.890625 33.015625 
z
" id="DejaVuSans-6e"/>
    </defs>
    <g transform="translate(170.828438 35.472)scale(0.12 -0.12)">
     <use xlink:href="#DejaVuSans-50"/>
     <use x="60.255859" xlink:href="#DejaVuSans-6f"/>
     <use x="121.4375" xlink:href="#DejaVuSans-72"/>
     <use x="162.550781" xlink:href="#DejaVuSans-74"/>
     <use x="201.759766" xlink:href="#DejaVuSans-66"/>
     <use x="236.964844" xlink:href="#DejaVuSans-6f"/>
     <use x="298.146484" xlink:href="#DejaVuSans-6c"/>
     <use x="325.929688" xlink:href="#DejaVuSans-69"/>
     <use x="353.712891" xlink:href="#DejaVuSans-6f"/>
     <use x="414.894531" xlink:href="#DejaVuSans-20"/>
     <use x="446.681641" xlink:href="#DejaVuSans-70"/>
     <use x="510.158203" xlink:href="#DejaVuSans-65"/>
     <use x="571.681641" xlink:href="#DejaVuSans-72"/>
     <use x="612.794922" xlink:href="#DejaVuSans-66"/>
     <use x="648" xlink:href="#DejaVuSans-6f"/>
     <use x="709.181641" xlink:href="#DejaVuSans-72"/>
     <use x="750.279297" xlink:href="#DejaVuSans-6d"/>
     <use x="847.691406" xlink:href="#DejaVuSans-61"/>
     <use x="908.970703" xlink:href="#DejaVuSans-6e"/>
     <use x="972.349609" xlink:href="#DejaVuSans-63"/>
     <use x="1027.330078" xlink:href="#DejaVuSans-65"/>
    </g>
   </g>
   <g id="legend_1">
    <g id="patch_7">
     <path d="M 251.94375 131.4045 
L 409.12 131.4045 
Q 410.72 131.4045 410.72 129.8045 
L 410.72 47.072 
Q 410.72 45.472 409.12 45.472 
L 251.94375 45.472 
Q 250.34375 45.472 250.34375 47.072 
L 250.34375 129.8045 
Q 250.34375 131.4045 251.94375 131.4045 
z
" style="fill:#ffffff;opacity:0.8;stroke:#cccccc;stroke-linejoin:miter;"/>
    </g>
    <g id="line2d_38">
     <path d="M 253.54375 51.95075 
L 269.54375 51.95075 
" style="fill:none;stroke:#1f77b4;stroke-linecap:square;stroke-width:1.5;"/>
    </g>
    <g id="line2d_39">
     <g>
      <use style="fill:#1f77b4;stroke:#1f77b4;" x="261.54375" xlink:href="#m3a81f6e421" y="51.95075"/>
     </g>
    </g>
    <g id="text_19">
     <!-- naive -->
     <defs>
      <path d="M 2.984375 54.6875 
L 12.5 54.6875 
L 29.59375 8.796875 
L 46.6875 54.6875 
L 56.203125 54.6875 
L 35.6875 0 
L 23.484375 0 
z
" id="DejaVuSans-76"/>
     </defs>
     <g transform="translate(275.94375 54.75075)scale(0.08 -0.08)">
      <use xlink:href="#DejaVuSans-6e"/>
      <use x="63.378906" xlink:href="#DejaVuSans-61"/>
      <use x="124.658203" xlink:href="#DejaVuSans-69"/>
      <use x="152.441406" xlink:href="#DejaVuSans-76"/>
      <use x="211.621094" xlink:href="#DejaVuSans-65"/>
     </g>
    </g>
    <g id="line2d_40">
     <path d="M 253.54375 63.69325 
L 269.54375 63.69325 
" style="fill:none;stroke:#ff7f0e;stroke-linecap:square;stroke-width:1.5;"/>
    </g>
    <g id="line2d_41">
     <g>
      <use style="fill:#ff7f0e;stroke:#ff7f0e;" x="261.54375" xlink:href="#m02b8ea300e" y="63.69325"/>
     </g>
    </g>
    <g id="text_20">
     <!-- reduced_RandomForestClassifier -->
     <defs>
      <path d="M 8.5 21.578125 
L 8.5 54.6875 
L 17.484375 54.6875 
L 17.484375 21.921875 
Q 17.484375 14.15625 20.5 10.265625 
Q 23.53125 6.390625 29.59375 6.390625 
Q 36.859375 6.390625 41.078125 11.03125 
Q 45.3125 15.671875 45.3125 23.6875 
L 45.3125 54.6875 
L 54.296875 54.6875 
L 54.296875 0 
L 45.3125 0 
L 45.3125 8.40625 
Q 42.046875 3.421875 37.71875 1 
Q 33.40625 -1.421875 27.6875 -1.421875 
Q 18.265625 -1.421875 13.375 4.4375 
Q 8.5 10.296875 8.5 21.578125 
z
M 31.109375 56 
z
" id="DejaVuSans-75"/>
      <path d="M 50.984375 -16.609375 
L 50.984375 -23.578125 
L -0.984375 -23.578125 
L -0.984375 -16.609375 
z
" id="DejaVuSans-5f"/>
      <path d="M 44.390625 34.1875 
Q 47.5625 33.109375 50.5625 29.59375 
Q 53.5625 26.078125 56.59375 19.921875 
L 66.609375 0 
L 56 0 
L 46.6875 18.703125 
Q 43.0625 26.03125 39.671875 28.421875 
Q 36.28125 30.8125 30.421875 30.8125 
L 19.671875 30.8125 
L 19.671875 0 
L 9.8125 0 
L 9.8125 72.90625 
L 32.078125 72.90625 
Q 44.578125 72.90625 50.734375 67.671875 
Q 56.890625 62.453125 56.890625 51.90625 
Q 56.890625 45.015625 53.6875 40.46875 
Q 50.484375 35.9375 44.390625 34.1875 
z
M 19.671875 64.796875 
L 19.671875 38.921875 
L 32.078125 38.921875 
Q 39.203125 38.921875 42.84375 42.21875 
Q 46.484375 45.515625 46.484375 51.90625 
Q 46.484375 58.296875 42.84375 61.546875 
Q 39.203125 64.796875 32.078125 64.796875 
z
" id="DejaVuSans-52"/>
      <path d="M 9.8125 72.90625 
L 51.703125 72.90625 
L 51.703125 64.59375 
L 19.671875 64.59375 
L 19.671875 43.109375 
L 48.578125 43.109375 
L 48.578125 34.8125 
L 19.671875 34.8125 
L 19.671875 0 
L 9.8125 0 
z
" id="DejaVuSans-46"/>
      <path d="M 44.28125 53.078125 
L 44.28125 44.578125 
Q 40.484375 46.53125 36.375 47.5 
Q 32.28125 48.484375 27.875 48.484375 
Q 21.1875 48.484375 17.84375 46.4375 
Q 14.5 44.390625 14.5 40.28125 
Q 14.5 37.15625 16.890625 35.375 
Q 19.28125 33.59375 26.515625 31.984375 
L 29.59375 31.296875 
Q 39.15625 29.25 43.1875 25.515625 
Q 47.21875 21.78125 47.21875 15.09375 
Q 47.21875 7.46875 41.1875 3.015625 
Q 35.15625 -1.421875 24.609375 -1.421875 
Q 20.21875 -1.421875 15.453125 -0.5625 
Q 10.6875 0.296875 5.421875 2 
L 5.421875 11.28125 
Q 10.40625 8.6875 15.234375 7.390625 
Q 20.0625 6.109375 24.8125 6.109375 
Q 31.15625 6.109375 34.5625 8.28125 
Q 37.984375 10.453125 37.984375 14.40625 
Q 37.984375 18.0625 35.515625 20.015625 
Q 33.0625 21.96875 24.703125 23.78125 
L 21.578125 24.515625 
Q 13.234375 26.265625 9.515625 29.90625 
Q 5.8125 33.546875 5.8125 39.890625 
Q 5.8125 47.609375 11.28125 51.796875 
Q 16.75 56 26.8125 56 
Q 31.78125 56 36.171875 55.265625 
Q 40.578125 54.546875 44.28125 53.078125 
z
" id="DejaVuSans-73"/>
      <path d="M 64.40625 67.28125 
L 64.40625 56.890625 
Q 59.421875 61.53125 53.78125 63.8125 
Q 48.140625 66.109375 41.796875 66.109375 
Q 29.296875 66.109375 22.65625 58.46875 
Q 16.015625 50.828125 16.015625 36.375 
Q 16.015625 21.96875 22.65625 14.328125 
Q 29.296875 6.6875 41.796875 6.6875 
Q 48.140625 6.6875 53.78125 8.984375 
Q 59.421875 11.28125 64.40625 15.921875 
L 64.40625 5.609375 
Q 59.234375 2.09375 53.4375 0.328125 
Q 47.65625 -1.421875 41.21875 -1.421875 
Q 24.65625 -1.421875 15.125 8.703125 
Q 5.609375 18.84375 5.609375 36.375 
Q 5.609375 53.953125 15.125 64.078125 
Q 24.65625 74.21875 41.21875 74.21875 
Q 47.75 74.21875 53.53125 72.484375 
Q 59.328125 70.75 64.40625 67.28125 
z
" id="DejaVuSans-43"/>
     </defs>
     <g transform="translate(275.94375 66.49325)scale(0.08 -0.08)">
      <use xlink:href="#DejaVuSans-72"/>
      <use x="41.082031" xlink:href="#DejaVuSans-65"/>
      <use x="102.605469" xlink:href="#DejaVuSans-64"/>
      <use x="166.082031" xlink:href="#DejaVuSans-75"/>
      <use x="229.460938" xlink:href="#DejaVuSans-63"/>
      <use x="284.441406" xlink:href="#DejaVuSans-65"/>
      <use x="345.964844" xlink:href="#DejaVuSans-64"/>
      <use x="409.441406" xlink:href="#DejaVuSans-5f"/>
      <use x="459.441406" xlink:href="#DejaVuSans-52"/>
      <use x="528.892578" xlink:href="#DejaVuSans-61"/>
      <use x="590.171875" xlink:href="#DejaVuSans-6e"/>
      <use x="653.550781" xlink:href="#DejaVuSans-64"/>
      <use x="717.027344" xlink:href="#DejaVuSans-6f"/>
      <use x="778.208984" xlink:href="#DejaVuSans-6d"/>
      <use x="875.621094" xlink:href="#DejaVuSans-46"/>
      <use x="933.09375" xlink:href="#DejaVuSans-6f"/>
      <use x="994.275391" xlink:href="#DejaVuSans-72"/>
      <use x="1035.357422" xlink:href="#DejaVuSans-65"/>
      <use x="1096.880859" xlink:href="#DejaVuSans-73"/>
      <use x="1148.980469" xlink:href="#DejaVuSans-74"/>
      <use x="1188.189453" xlink:href="#DejaVuSans-43"/>
      <use x="1258.013672" xlink:href="#DejaVuSans-6c"/>
      <use x="1285.796875" xlink:href="#DejaVuSans-61"/>
      <use x="1347.076172" xlink:href="#DejaVuSans-73"/>
      <use x="1399.175781" xlink:href="#DejaVuSans-73"/>
      <use x="1451.275391" xlink:href="#DejaVuSans-69"/>
      <use x="1479.058594" xlink:href="#DejaVuSans-66"/>
      <use x="1514.263672" xlink:href="#DejaVuSans-69"/>
      <use x="1542.046875" xlink:href="#DejaVuSans-65"/>
      <use x="1603.570312" xlink:href="#DejaVuSans-72"/>
     </g>
    </g>
    <g id="line2d_42">
     <path d="M 253.54375 75.65825 
L 269.54375 75.65825 
" style="fill:none;stroke:#2ca02c;stroke-linecap:square;stroke-width:1.5;"/>
    </g>
    <g id="line2d_43">
     <g>
      <use style="fill:#2ca02c;stroke:#2ca02c;" x="261.54375" xlink:href="#m396c3c033a" y="75.65825"/>
     </g>
    </g>
    <g id="text_21">
     <!-- reduced_KNeighborsClassifier -->
     <defs>
      <path d="M 9.8125 72.90625 
L 19.671875 72.90625 
L 19.671875 42.09375 
L 52.390625 72.90625 
L 65.09375 72.90625 
L 28.90625 38.921875 
L 67.671875 0 
L 54.6875 0 
L 19.671875 35.109375 
L 19.671875 0 
L 9.8125 0 
z
" id="DejaVuSans-4b"/>
      <path d="M 9.8125 72.90625 
L 23.09375 72.90625 
L 55.421875 11.921875 
L 55.421875 72.90625 
L 64.984375 72.90625 
L 64.984375 0 
L 51.703125 0 
L 19.390625 60.984375 
L 19.390625 0 
L 9.8125 0 
z
" id="DejaVuSans-4e"/>
      <path d="M 45.40625 27.984375 
Q 45.40625 37.75 41.375 43.109375 
Q 37.359375 48.484375 30.078125 48.484375 
Q 22.859375 48.484375 18.828125 43.109375 
Q 14.796875 37.75 14.796875 27.984375 
Q 14.796875 18.265625 18.828125 12.890625 
Q 22.859375 7.515625 30.078125 7.515625 
Q 37.359375 7.515625 41.375 12.890625 
Q 45.40625 18.265625 45.40625 27.984375 
z
M 54.390625 6.78125 
Q 54.390625 -7.171875 48.1875 -13.984375 
Q 42 -20.796875 29.203125 -20.796875 
Q 24.46875 -20.796875 20.265625 -20.09375 
Q 16.0625 -19.390625 12.109375 -17.921875 
L 12.109375 -9.1875 
Q 16.0625 -11.328125 19.921875 -12.34375 
Q 23.78125 -13.375 27.78125 -13.375 
Q 36.625 -13.375 41.015625 -8.765625 
Q 45.40625 -4.15625 45.40625 5.171875 
L 45.40625 9.625 
Q 42.625 4.78125 38.28125 2.390625 
Q 33.9375 0 27.875 0 
Q 17.828125 0 11.671875 7.65625 
Q 5.515625 15.328125 5.515625 27.984375 
Q 5.515625 40.671875 11.671875 48.328125 
Q 17.828125 56 27.875 56 
Q 33.9375 56 38.28125 53.609375 
Q 42.625 51.21875 45.40625 46.390625 
L 45.40625 54.6875 
L 54.390625 54.6875 
z
" id="DejaVuSans-67"/>
      <path d="M 54.890625 33.015625 
L 54.890625 0 
L 45.90625 0 
L 45.90625 32.71875 
Q 45.90625 40.484375 42.875 44.328125 
Q 39.84375 48.1875 33.796875 48.1875 
Q 26.515625 48.1875 22.3125 43.546875 
Q 18.109375 38.921875 18.109375 30.90625 
L 18.109375 0 
L 9.078125 0 
L 9.078125 75.984375 
L 18.109375 75.984375 
L 18.109375 46.1875 
Q 21.34375 51.125 25.703125 53.5625 
Q 30.078125 56 35.796875 56 
Q 45.21875 56 50.046875 50.171875 
Q 54.890625 44.34375 54.890625 33.015625 
z
" id="DejaVuSans-68"/>
      <path d="M 48.6875 27.296875 
Q 48.6875 37.203125 44.609375 42.84375 
Q 40.53125 48.484375 33.40625 48.484375 
Q 26.265625 48.484375 22.1875 42.84375 
Q 18.109375 37.203125 18.109375 27.296875 
Q 18.109375 17.390625 22.1875 11.75 
Q 26.265625 6.109375 33.40625 6.109375 
Q 40.53125 6.109375 44.609375 11.75 
Q 48.6875 17.390625 48.6875 27.296875 
z
M 18.109375 46.390625 
Q 20.953125 51.265625 25.265625 53.625 
Q 29.59375 56 35.59375 56 
Q 45.5625 56 51.78125 48.09375 
Q 58.015625 40.1875 58.015625 27.296875 
Q 58.015625 14.40625 51.78125 6.484375 
Q 45.5625 -1.421875 35.59375 -1.421875 
Q 29.59375 -1.421875 25.265625 0.953125 
Q 20.953125 3.328125 18.109375 8.203125 
L 18.109375 0 
L 9.078125 0 
L 9.078125 75.984375 
L 18.109375 75.984375 
z
" id="DejaVuSans-62"/>
     </defs>
     <g transform="translate(275.94375 78.45825)scale(0.08 -0.08)">
      <use xlink:href="#DejaVuSans-72"/>
      <use x="41.082031" xlink:href="#DejaVuSans-65"/>
      <use x="102.605469" xlink:href="#DejaVuSans-64"/>
      <use x="166.082031" xlink:href="#DejaVuSans-75"/>
      <use x="229.460938" xlink:href="#DejaVuSans-63"/>
      <use x="284.441406" xlink:href="#DejaVuSans-65"/>
      <use x="345.964844" xlink:href="#DejaVuSans-64"/>
      <use x="409.441406" xlink:href="#DejaVuSans-5f"/>
      <use x="459.441406" xlink:href="#DejaVuSans-4b"/>
      <use x="525.017578" xlink:href="#DejaVuSans-4e"/>
      <use x="599.822266" xlink:href="#DejaVuSans-65"/>
      <use x="661.345703" xlink:href="#DejaVuSans-69"/>
      <use x="689.128906" xlink:href="#DejaVuSans-67"/>
      <use x="752.605469" xlink:href="#DejaVuSans-68"/>
      <use x="815.984375" xlink:href="#DejaVuSans-62"/>
      <use x="879.460938" xlink:href="#DejaVuSans-6f"/>
      <use x="940.642578" xlink:href="#DejaVuSans-72"/>
      <use x="981.755859" xlink:href="#DejaVuSans-73"/>
      <use x="1033.855469" xlink:href="#DejaVuSans-43"/>
      <use x="1103.679688" xlink:href="#DejaVuSans-6c"/>
      <use x="1131.462891" xlink:href="#DejaVuSans-61"/>
      <use x="1192.742188" xlink:href="#DejaVuSans-73"/>
      <use x="1244.841797" xlink:href="#DejaVuSans-73"/>
      <use x="1296.941406" xlink:href="#DejaVuSans-69"/>
      <use x="1324.724609" xlink:href="#DejaVuSans-66"/>
      <use x="1359.929688" xlink:href="#DejaVuSans-69"/>
      <use x="1387.712891" xlink:href="#DejaVuSans-65"/>
      <use x="1449.236328" xlink:href="#DejaVuSans-72"/>
     </g>
    </g>
    <g id="line2d_44">
     <path d="M 253.54375 87.62325 
L 269.54375 87.62325 
" style="fill:none;stroke:#d62728;stroke-linecap:square;stroke-width:1.5;"/>
    </g>
    <g id="line2d_45">
     <g>
      <use style="fill:#d62728;stroke:#d62728;" x="261.54375" xlink:href="#mcdbda6e44f" y="87.62325"/>
     </g>
    </g>
    <g id="text_22">
     <!-- reduced_DecisionTreeClassifier -->
     <defs>
      <path d="M 19.671875 64.796875 
L 19.671875 8.109375 
L 31.59375 8.109375 
Q 46.6875 8.109375 53.6875 14.9375 
Q 60.6875 21.78125 60.6875 36.53125 
Q 60.6875 51.171875 53.6875 57.984375 
Q 46.6875 64.796875 31.59375 64.796875 
z
M 9.8125 72.90625 
L 30.078125 72.90625 
Q 51.265625 72.90625 61.171875 64.09375 
Q 71.09375 55.28125 71.09375 36.53125 
Q 71.09375 17.671875 61.125 8.828125 
Q 51.171875 0 30.078125 0 
L 9.8125 0 
z
" id="DejaVuSans-44"/>
      <path d="M -0.296875 72.90625 
L 61.375 72.90625 
L 61.375 64.59375 
L 35.5 64.59375 
L 35.5 0 
L 25.59375 0 
L 25.59375 64.59375 
L -0.296875 64.59375 
z
" id="DejaVuSans-54"/>
     </defs>
     <g transform="translate(275.94375 90.42325)scale(0.08 -0.08)">
      <use xlink:href="#DejaVuSans-72"/>
      <use x="41.082031" xlink:href="#DejaVuSans-65"/>
      <use x="102.605469" xlink:href="#DejaVuSans-64"/>
      <use x="166.082031" xlink:href="#DejaVuSans-75"/>
      <use x="229.460938" xlink:href="#DejaVuSans-63"/>
      <use x="284.441406" xlink:href="#DejaVuSans-65"/>
      <use x="345.964844" xlink:href="#DejaVuSans-64"/>
      <use x="409.441406" xlink:href="#DejaVuSans-5f"/>
      <use x="459.441406" xlink:href="#DejaVuSans-44"/>
      <use x="536.443359" xlink:href="#DejaVuSans-65"/>
      <use x="597.966797" xlink:href="#DejaVuSans-63"/>
      <use x="652.947266" xlink:href="#DejaVuSans-69"/>
      <use x="680.730469" xlink:href="#DejaVuSans-73"/>
      <use x="732.830078" xlink:href="#DejaVuSans-69"/>
      <use x="760.613281" xlink:href="#DejaVuSans-6f"/>
      <use x="821.794922" xlink:href="#DejaVuSans-6e"/>
      <use x="885.173828" xlink:href="#DejaVuSans-54"/>
      <use x="946.039062" xlink:href="#DejaVuSans-72"/>
      <use x="987.121094" xlink:href="#DejaVuSans-65"/>
      <use x="1048.644531" xlink:href="#DejaVuSans-65"/>
      <use x="1110.167969" xlink:href="#DejaVuSans-43"/>
      <use x="1179.992188" xlink:href="#DejaVuSans-6c"/>
      <use x="1207.775391" xlink:href="#DejaVuSans-61"/>
      <use x="1269.054688" xlink:href="#DejaVuSans-73"/>
      <use x="1321.154297" xlink:href="#DejaVuSans-73"/>
      <use x="1373.253906" xlink:href="#DejaVuSans-69"/>
      <use x="1401.037109" xlink:href="#DejaVuSans-66"/>
      <use x="1436.242188" xlink:href="#DejaVuSans-69"/>
      <use x="1464.025391" xlink:href="#DejaVuSans-65"/>
      <use x="1525.548828" xlink:href="#DejaVuSans-72"/>
     </g>
    </g>
    <g id="line2d_46">
     <path d="M 253.54375 99.58825 
L 269.54375 99.58825 
" style="fill:none;stroke:#9467bd;stroke-linecap:square;stroke-width:1.5;"/>
    </g>
    <g id="line2d_47">
     <g>
      <use style="fill:#9467bd;stroke:#9467bd;" x="261.54375" xlink:href="#m7920e4e3e9" y="99.58825"/>
     </g>
    </g>
    <g id="text_23">
     <!-- reduced_LogisticRegression -->
     <defs>
      <path d="M 9.8125 72.90625 
L 19.671875 72.90625 
L 19.671875 8.296875 
L 55.171875 8.296875 
L 55.171875 0 
L 9.8125 0 
z
" id="DejaVuSans-4c"/>
     </defs>
     <g transform="translate(275.94375 102.38825)scale(0.08 -0.08)">
      <use xlink:href="#DejaVuSans-72"/>
      <use x="41.082031" xlink:href="#DejaVuSans-65"/>
      <use x="102.605469" xlink:href="#DejaVuSans-64"/>
      <use x="166.082031" xlink:href="#DejaVuSans-75"/>
      <use x="229.460938" xlink:href="#DejaVuSans-63"/>
      <use x="284.441406" xlink:href="#DejaVuSans-65"/>
      <use x="345.964844" xlink:href="#DejaVuSans-64"/>
      <use x="409.441406" xlink:href="#DejaVuSans-5f"/>
      <use x="459.441406" xlink:href="#DejaVuSans-4c"/>
      <use x="515.138672" xlink:href="#DejaVuSans-6f"/>
      <use x="576.320312" xlink:href="#DejaVuSans-67"/>
      <use x="639.796875" xlink:href="#DejaVuSans-69"/>
      <use x="667.580078" xlink:href="#DejaVuSans-73"/>
      <use x="719.679688" xlink:href="#DejaVuSans-74"/>
      <use x="758.888672" xlink:href="#DejaVuSans-69"/>
      <use x="786.671875" xlink:href="#DejaVuSans-63"/>
      <use x="841.652344" xlink:href="#DejaVuSans-52"/>
      <use x="911.072266" xlink:href="#DejaVuSans-65"/>
      <use x="972.595703" xlink:href="#DejaVuSans-67"/>
      <use x="1036.072266" xlink:href="#DejaVuSans-72"/>
      <use x="1077.154297" xlink:href="#DejaVuSans-65"/>
      <use x="1138.677734" xlink:href="#DejaVuSans-73"/>
      <use x="1190.777344" xlink:href="#DejaVuSans-73"/>
      <use x="1242.876953" xlink:href="#DejaVuSans-69"/>
      <use x="1270.660156" xlink:href="#DejaVuSans-6f"/>
      <use x="1331.841797" xlink:href="#DejaVuSans-6e"/>
     </g>
    </g>
    <g id="line2d_48">
     <path d="M 253.54375 111.55325 
L 269.54375 111.55325 
" style="fill:none;stroke:#8c564b;stroke-linecap:square;stroke-width:1.5;"/>
    </g>
    <g id="line2d_49">
     <g>
      <use style="fill:#8c564b;stroke:#8c564b;" x="261.54375" xlink:href="#m5f27905e27" y="111.55325"/>
     </g>
    </g>
    <g id="text_24">
     <!-- reduced_SVC -->
     <defs>
      <path d="M 28.609375 0 
L 0.78125 72.90625 
L 11.078125 72.90625 
L 34.1875 11.53125 
L 57.328125 72.90625 
L 67.578125 72.90625 
L 39.796875 0 
z
" id="DejaVuSans-56"/>
     </defs>
     <g transform="translate(275.94375 114.35325)scale(0.08 -0.08)">
      <use xlink:href="#DejaVuSans-72"/>
      <use x="41.082031" xlink:href="#DejaVuSans-65"/>
      <use x="102.605469" xlink:href="#DejaVuSans-64"/>
      <use x="166.082031" xlink:href="#DejaVuSans-75"/>
      <use x="229.460938" xlink:href="#DejaVuSans-63"/>
      <use x="284.441406" xlink:href="#DejaVuSans-65"/>
      <use x="345.964844" xlink:href="#DejaVuSans-64"/>
      <use x="409.441406" xlink:href="#DejaVuSans-5f"/>
      <use x="459.441406" xlink:href="#DejaVuSans-53"/>
      <use x="522.917969" xlink:href="#DejaVuSans-56"/>
      <use x="591.326172" xlink:href="#DejaVuSans-43"/>
     </g>
    </g>
    <g id="line2d_50">
     <path d="M 253.54375 123.51825 
L 269.54375 123.51825 
" style="fill:none;stroke:#e377c2;stroke-linecap:square;stroke-width:1.5;"/>
    </g>
    <g id="line2d_51">
     <g>
      <use style="fill:#e377c2;stroke:#e377c2;" x="261.54375" xlink:href="#md9f34f4dfa" y="123.51825"/>
     </g>
    </g>
    <g id="text_25">
     <!-- reduced_LinearSVC -->
     <g transform="translate(275.94375 126.31825)scale(0.08 -0.08)">
      <use xlink:href="#DejaVuSans-72"/>
      <use x="41.082031" xlink:href="#DejaVuSans-65"/>
      <use x="102.605469" xlink:href="#DejaVuSans-64"/>
      <use x="166.082031" xlink:href="#DejaVuSans-75"/>
      <use x="229.460938" xlink:href="#DejaVuSans-63"/>
      <use x="284.441406" xlink:href="#DejaVuSans-65"/>
      <use x="345.964844" xlink:href="#DejaVuSans-64"/>
      <use x="409.441406" xlink:href="#DejaVuSans-5f"/>
      <use x="459.441406" xlink:href="#DejaVuSans-4c"/>
      <use x="515.154297" xlink:href="#DejaVuSans-69"/>
      <use x="542.9375" xlink:href="#DejaVuSans-6e"/>
      <use x="606.316406" xlink:href="#DejaVuSans-65"/>
      <use x="667.839844" xlink:href="#DejaVuSans-61"/>
      <use x="729.119141" xlink:href="#DejaVuSans-72"/>
      <use x="770.232422" xlink:href="#DejaVuSans-53"/>
      <use x="833.708984" xlink:href="#DejaVuSans-56"/>
      <use x="902.117188" xlink:href="#DejaVuSans-43"/>
     </g>
    </g>
   </g>
  </g>
 </g>
 <defs>
  <clipPath id="p6276a12da7">
   <rect height="266.112" width="357.12" x="57.6" y="41.472"/>
  </clipPath>
 </defs>
</svg>
